<?xml version="1.0" encoding="utf-8"?>
<!-- Generator: Adobe Illustrator 21.0.0, SVG Export Plug-In . SVG Version: 6.00 Build 0)  -->
<svg version="1.1" id="Layer_1" xmlns="http://www.w3.org/2000/svg" xmlns:xlink="http://www.w3.org/1999/xlink" x="0px" y="0px"
	 viewBox="0 0 237.5 893.2" style="enable-background:new 0 0 237.5 893.2;" xml:space="preserve">
<style type="text/css">
	.button{opacity: 0; fill:#FFFFFF;}
</style>
<g id="Buttons">
	<path id="left" class="button" d="M79.3,574.5c1.4-0.1,2.5-0.3,3.1-0.8s1-1.5,1-3.3V552c0-1.8-0.3-2.8-1-3.3c-0.6-0.6-1.7-0.8-3.1-0.8
		c-0.4,0-0.8,0-1.2,0.1c-0.4,0-0.8,0-1.3,0l-41.5,1.7c-1,0-1.9,0.4-2.6,1.1c-0.6,0.5-0.9,1.3-0.9,2.2v16.4c0,0.9,0.4,1.6,0.9,2.2
		c0.7,0.7,1.7,1,2.6,1.1l41.4,1.7c0.5,0,0.9,0,1.3,0C78.5,574.4,78.9,574.5,79.3,574.5"/>
	<path id="ok" class="button" d="M102,548.9v23.4c0,1.5,0.6,2.9,1.6,3.9s2.4,1.6,3.9,1.6h23.4c1.2,0,2.3-0.5,3.1-1.3l0,0
		c0.8-0.8,1.3-1.9,1.3-3.1v-24.5c0-1.2-0.5-2.3-1.3-3.1l0,0c-0.8-0.8-1.9-1.3-3.1-1.3h-24.5c-1.2,0-2.3,0.5-3.1,1.3l0,0
		C102.5,546.6,102,547.7,102,548.9"/>
	<path id="up" class="button" d="M109.4,525.9h18.4c0.9,0,1.6-0.1,2.2-0.3c0.5-0.2,0.9-0.4,1.1-0.6c0.4-0.4,0.6-0.9,0.8-1.7
		c0.2-0.9,0.3-2.1,0.3-3.7c0-0.6-0.1-1.4-0.1-2.2c0-0.7-0.1-1.6-0.1-2.6c0-1.3-0.1-2.7-0.1-4c0-1.2-0.1-2.4-0.1-3.6l-0.8-17.6
		c0-1-0.5-1.9-1.1-2.6c-0.6-0.6-1.5-1-2.3-1h-17.7c-0.9,0-1.7,0.4-2.3,1c-0.6,0.7-1.1,1.6-1.1,2.6l-0.8,17.6c-0.1,1.4-0.1,2.7-0.1,4
		c0,1.2-0.1,2.5-0.1,3.7c0,1-0.1,1.8-0.1,2.6s-0.1,1.6-0.1,2.3c0,1.6,0.1,2.8,0.3,3.7c0.2,0.8,0.4,1.3,0.8,1.7l0,0
		c0.3,0.3,0.7,0.5,1.1,0.6C107.8,525.8,108.6,525.9,109.4,525.9"/>
	<path id="vol_x2B_" class="button" d="M85.7,353v-58.6c0-0.1,0-0.2-0.1-0.3s-0.2-0.1-0.3-0.1H34.5c-0.1,0-0.2,0-0.3,0.1l0,0
		c-0.1,0.1-0.1,0.2-0.1,0.3V353H85.7z"/>
	<path id="channel_x2B_" class="button" d="M151.9,294.3V353h51.6v-58.6c0-0.1,0-0.2-0.1-0.3l0,0c-0.1-0.1-0.2-0.1-0.3-0.1h-50.8
		c-0.1,0-0.2,0-0.3,0.1S151.9,294.2,151.9,294.3"/>
	<path id="channel-" class="button" d="M203.5,355.8h-51.6v58.6c0,0.1,0,0.2,0.1,0.3l0,0c0.1,0.1,0.2,0.1,0.3,0.1h50.8
		c0.1,0,0.2,0,0.3-0.1l0,0c0.1-0.1,0.1-0.2,0.1-0.3L203.5,355.8L203.5,355.8z"/>
	<path id="vol-" class="button" d="M85.7,414.4v-58.6H34v58.6c0,0.1,0,0.2,0.1,0.3l0,0c0.1,0.1,0.2,0.1,0.3,0.1h50.8
		c0.1,0,0.2,0,0.3-0.1C85.6,414.6,85.7,414.5,85.7,414.4"/>
	<path id="power" class="button" d="M54.2,88.9c6,0,11.3-2.4,15.3-6.3c3.9-3.9,6.3-9.3,6.3-15.3S73.4,56,69.5,52
		c-3.9-3.9-9.3-6.3-15.3-6.3S42.9,48.2,39,52.1s-6.3,9.3-6.3,15.3c0,6,2.4,11.3,6.3,15.3S48.3,88.9,54.2,88.9"/>
	<path id="source" class="button" d="M157.7,51.3v32.2c0,0.1,0,0.2,0.1,0.3l0,0c0.1,0.1,0.2,0.1,0.3,0.1h43.3c0.1,0,0.2,0,0.3-0.1
		s0.1-0.2,0.1-0.3V51.3c0-0.1,0-0.2-0.1-0.3l0,0c-0.1-0.1-0.2-0.1-0.3-0.1h-43.3c-0.1,0-0.2,0-0.3,0.1l0,0
		C157.8,51,157.7,51.1,157.7,51.3"/>
	<path id="right" class="button" d="M158,547.9c-1.4,0.1-2.5,0.3-3.1,0.8s-1,1.5-1,3.3v18.4c0,1.8,0.3,2.8,1,3.3
		c0.6,0.6,1.7,0.8,3.1,0.8c0.4,0,0.8,0,1.2-0.1c0.4,0,0.8,0,1.3,0l41.5-1.7c1,0,1.9-0.4,2.6-1.1c0.6-0.5,0.9-1.3,0.9-2.2V553
		c0-0.9-0.4-1.6-0.9-2.2c-0.7-0.7-1.7-1-2.6-1.1l-41.4-1.7c-0.5,0-0.9,0-1.3,0C158.7,547.9,158.3,547.9,158,547.9"/>
	<path id="down" class="button" d="M127.8,596.4h-18.4c-0.9,0-1.6,0.1-2.2,0.3c-0.5,0.2-0.9,0.4-1.1,0.6c-0.4,0.4-0.6,0.9-0.8,1.7
		c-0.2,0.9-0.3,2.1-0.3,3.7c0,0.6,0.1,1.4,0.1,2.2c0,0.7,0.1,1.6,0.1,2.6c0,1.3,0.1,2.7,0.1,4c0,1.2,0.1,2.4,0.1,3.6l0.8,17.6
		c0,1,0.5,1.9,1.1,2.6c0.6,0.6,1.5,1,2.3,1h17.7c0.9,0,1.7-0.4,2.3-1c0.6-0.7,1.1-1.6,1.1-2.6l0.8-17.6c0.1-1.4,0.1-2.7,0.1-4
		c0-1.2,0.1-2.5,0.1-3.7c0-1,0.1-1.8,0.1-2.6s0.1-1.6,0.1-2.3c0-1.6-0.1-2.8-0.3-3.7c-0.2-0.8-0.4-1.3-0.8-1.7l0,0
		c-0.3-0.3-0.7-0.5-1.1-0.6C129.4,596.5,128.7,596.4,127.8,596.4"/>
	<path id="tools" class="button" d="M35.9,516.7h34.8c1.7,0,3.2-0.7,4.3-1.8c1.1-1.1,1.8-2.6,1.8-4.3v-19.4c0-0.9-0.4-1.7-1-2.3l0,0
		c-0.6-0.6-1.4-1-2.3-1H35.9c-0.9,0-1.7,0.4-2.3,1s-1,1.4-1,2.3v22.2c0,0.9,0.4,1.7,0.9,2.3C34.2,516.4,35,516.7,35.9,516.7"/>
	<path id="info" class="button" d="M157.7,491.3v19.4c0,1.7,0.7,3.2,1.8,4.3c1.1,1.1,2.6,1.8,4.3,1.8h34.8c0.9,0,1.7-0.4,2.3-1
		s0.9-1.4,0.9-2.3v-22.2c0-0.9-0.4-1.7-1-2.3c-0.6-0.6-1.4-1-2.3-1H161c-0.9,0-1.7,0.4-2.3,1l0,0
		C158.1,489.6,157.7,490.4,157.7,491.3"/>
	<path id="exit" class="button" d="M198.6,604.2h-34.8c-1.7,0-3.2,0.7-4.3,1.8s-1.8,2.6-1.8,4.3v19.4c0,0.9,0.4,1.7,1,2.3l0,0
		c0.6,0.6,1.4,1,2.3,1h37.6c0.9,0,1.7-0.4,2.3-1s0.9-1.4,0.9-2.3v-22.2c0-0.9-0.4-1.7-1-2.3C200.3,604.6,199.5,604.2,198.6,604.2"/>
	<path id="return" class="button" d="M76.8,629.7v-19.4c0-1.7-0.7-3.2-1.8-4.3c-1.1-1.1-2.6-1.8-4.3-1.8H35.9c-0.9,0-1.7,0.4-2.3,1
		s-1,1.4-1,2.3v22.2c0,0.9,0.4,1.7,0.9,2.3c0.6,0.6,1.4,1,2.3,1h37.6c0.9,0,1.7-0.4,2.3-1l0,0C76.4,631.4,76.8,630.6,76.8,629.7"/>
	<path id="menu" class="button" d="M37.3,464.9h37.6c0.9,0,1.7-0.4,2.3-0.9l0,0c0.6-0.6,0.9-1.4,0.9-2.3v-22.2c0-0.9-0.4-1.7-1-2.3l0,0
		c-0.6-0.6-1.4-1-2.3-1H37.3c-0.9,0-1.7,0.4-2.3,1l0,0c-0.6,0.6-1,1.4-1,2.3v22.2c0,0.9,0.4,1.7,1,2.3
		C35.6,464.5,36.4,464.9,37.3,464.9"/>
	<path id="guide" class="button" d="M159.1,439.4v22.2c0,0.9,0.4,1.7,1,2.3c0.6,0.6,1.4,1,2.3,1H200c0.9,0,1.7-0.4,2.3-0.9l0,0
		c0.6-0.6,0.9-1.4,0.9-2.3v-22.2c0-0.9-0.4-1.7-1-2.3l0,0c-0.6-0.6-1.4-1-2.3-1h-37.6c-0.9,0-1.7,0.4-2.3,1l0,0
		C159.5,437.7,159.1,438.5,159.1,439.4"/>
	<path id="mute" class="button" d="M106.1,339.3h25.2c1.1,0,2.1-0.4,2.8-1.2c0.7-0.7,1.2-1.7,1.2-2.8v-31.4c0-1.1-0.4-2.1-1.2-2.8
		c-0.7-0.7-1.7-1.2-2.8-1.2h-25.2c-1.1,0-2.1,0.4-2.8,1.2l0,0c-0.7,0.7-1.2,1.7-1.2,2.8v31.4c0,1.1,0.4,2.1,1.2,2.8l0,0
		C103.9,338.9,104.9,339.3,106.1,339.3"/>
</g>
<g>
	<path d="M54.2,92.4c13.8,0,25-11.2,25-25s-11.2-25-25-25s-25,11.2-25,25S40.5,92.4,54.2,92.4z M54.2,44.4c12.7,0,23,10.3,23,23
		s-10.3,23-23,23s-23-10.3-23-23C31.2,54.7,41.6,44.4,54.2,44.4z"/>
	<path d="M158.1,87.3h43.3c2.1,0,3.8-1.7,3.8-3.8V51.3c0-2.1-1.7-3.8-3.8-3.8h-43.3c-2.1,0-3.8,1.7-3.8,3.8v32.2
		C154.3,85.6,156,87.3,158.1,87.3z M156.3,51.3c0-1,0.8-1.8,1.8-1.8h43.3c1,0,1.8,0.8,1.8,1.8v32.2c0,1-0.8,1.8-1.8,1.8h-43.3
		c-1,0-1.8-0.8-1.8-1.8V51.3z"/>
	<path d="M37.3,102.6c-3.7,0-6.7,3-6.7,6.7v22.2c0,3.7,3,6.7,6.7,6.7h37.6c3.7,0,6.7-3,6.7-6.7v-22.2c0-3.7-3-6.7-6.7-6.7
		C74.9,102.6,37.3,102.6,37.3,102.6z M79.6,109.3v22.2c0,2.6-2.1,4.7-4.7,4.7H37.3c-2.6,0-4.7-2.1-4.7-4.7v-22.2
		c0-2.6,2.1-4.7,4.7-4.7h37.6C77.5,104.6,79.6,106.7,79.6,109.3z"/>
	<path d="M99.8,138.2h37.6c3.7,0,6.7-3,6.7-6.7v-22.2c0-3.7-3-6.7-6.7-6.7H99.8c-3.7,0-6.7,3-6.7,6.7v22.2
		C93.2,135.2,96.2,138.2,99.8,138.2z M95.2,109.3c0-2.6,2.1-4.7,4.7-4.7h37.6c2.6,0,4.7,2.1,4.7,4.7v22.2c0,2.6-2.1,4.7-4.7,4.7
		H99.8c-2.6,0-4.7-2.1-4.7-4.7L95.2,109.3L95.2,109.3z"/>
	<path d="M206.6,109.3c0-3.7-3-6.7-6.7-6.7h-37.6c-3.7,0-6.7,3-6.7,6.7v22.2c0,3.7,3,6.7,6.7,6.7H200c3.7,0,6.7-3,6.7-6.7
		L206.6,109.3L206.6,109.3z M204.6,131.5c0,2.6-2.1,4.7-4.7,4.7h-37.6c-2.6,0-4.7-2.1-4.7-4.7v-22.2c0-2.6,2.1-4.7,4.7-4.7H200
		c2.6,0,4.7,2.1,4.7,4.7L204.6,131.5L204.6,131.5z"/>
	<path d="M37.3,184.2h37.6c3.7,0,6.7-3,6.7-6.7v-22.2c0-3.7-3-6.7-6.7-6.7H37.3c-3.7,0-6.7,3-6.7,6.7v22.2
		C30.6,181.2,33.6,184.2,37.3,184.2z M32.6,155.3c0-2.6,2.1-4.7,4.7-4.7h37.6c2.6,0,4.7,2.1,4.7,4.7v22.2c0,2.6-2.1,4.7-4.7,4.7
		H37.3c-2.6,0-4.7-2.1-4.7-4.7V155.3z"/>
	<path d="M99.8,184.2h37.6c3.7,0,6.7-3,6.7-6.7v-22.2c0-3.7-3-6.7-6.7-6.7H99.8c-3.7,0-6.7,3-6.7,6.7v22.2
		C93.2,181.2,96.2,184.2,99.8,184.2z M95.2,155.3c0-2.6,2.1-4.7,4.7-4.7h37.6c2.6,0,4.7,2.1,4.7,4.7v22.2c0,2.6-2.1,4.7-4.7,4.7
		H99.8c-2.6,0-4.7-2.1-4.7-4.7L95.2,155.3L95.2,155.3z"/>
	<path d="M206.6,155.3c0-3.7-3-6.7-6.7-6.7h-37.6c-3.7,0-6.7,3-6.7,6.7v22.2c0,3.7,3,6.7,6.7,6.7H200c3.7,0,6.7-3,6.7-6.7
		L206.6,155.3L206.6,155.3z M204.6,177.6c0,2.6-2.1,4.7-4.7,4.7h-37.6c-2.6,0-4.7-2.1-4.7-4.7v-22.2c0-2.6,2.1-4.7,4.7-4.7H200
		c2.6,0,4.7,2.1,4.7,4.7L204.6,177.6L204.6,177.6z"/>
	<path d="M30.6,223.6c0,3.7,3,6.7,6.7,6.7h37.6c3.7,0,6.7-3,6.7-6.7v-22.2c0-3.7-3-6.7-6.7-6.7H37.3c-3.7,0-6.7,3-6.7,6.7
		C30.6,201.4,30.6,223.6,30.6,223.6z M32.6,201.4c0-2.6,2.1-4.7,4.7-4.7h37.6c2.6,0,4.7,2.1,4.7,4.7v22.2c0,2.6-2.1,4.7-4.7,4.7
		H37.3c-2.6,0-4.7-2.1-4.7-4.7V201.4z"/>
	<path d="M99.8,230.3h37.6c3.7,0,6.7-3,6.7-6.7v-22.2c0-3.7-3-6.7-6.7-6.7H99.8c-3.7,0-6.7,3-6.7,6.7v22.2
		C93.2,227.3,96.2,230.3,99.8,230.3z M95.2,201.4c0-2.6,2.1-4.7,4.7-4.7h37.6c2.6,0,4.7,2.1,4.7,4.7v22.2c0,2.6-2.1,4.7-4.7,4.7
		H99.8c-2.6,0-4.7-2.1-4.7-4.7L95.2,201.4L95.2,201.4z"/>
	<path d="M206.6,201.4c0-3.7-3-6.7-6.7-6.7h-37.6c-3.7,0-6.7,3-6.7,6.7v22.2c0,3.7,3,6.7,6.7,6.7H200c3.7,0,6.7-3,6.7-6.7
		L206.6,201.4L206.6,201.4z M204.6,223.6c0,2.6-2.1,4.7-4.7,4.7h-37.6c-2.6,0-4.7-2.1-4.7-4.7v-22.2c0-2.6,2.1-4.7,4.7-4.7H200
		c2.6,0,4.7,2.1,4.7,4.7L204.6,223.6L204.6,223.6z"/>
	<path d="M30.6,269.3c0,3.7,3,6.7,6.7,6.7h37.6c3.7,0,6.7-3,6.7-6.7v-22.2c0-3.7-3-6.7-6.7-6.7H37.3c-3.7,0-6.7,3-6.7,6.7
		C30.6,247.1,30.6,269.3,30.6,269.3z M32.6,247.1c0-2.6,2.1-4.7,4.7-4.7h37.6c2.6,0,4.7,2.1,4.7,4.7v22.2c0,2.6-2.1,4.7-4.7,4.7
		H37.3c-2.6,0-4.7-2.1-4.7-4.7V247.1z"/>
	<path d="M99.8,276h37.6c3.7,0,6.7-3,6.7-6.7v-22.2c0-3.7-3-6.7-6.7-6.7H99.8c-3.7,0-6.7,3-6.7,6.7v22.2C93.2,273,96.2,276,99.8,276
		z M95.2,247.1c0-2.6,2.1-4.7,4.7-4.7h37.6c2.6,0,4.7,2.1,4.7,4.7v22.2c0,2.6-2.1,4.7-4.7,4.7H99.8c-2.6,0-4.7-2.1-4.7-4.7
		L95.2,247.1L95.2,247.1z"/>
	<path d="M200,240.5h-37.6c-3.7,0-6.7,3-6.7,6.7v22.2c0,3.7,3,6.7,6.7,6.7H200c3.7,0,6.7-3,6.7-6.7v-22.2
		C206.6,243.4,203.6,240.5,200,240.5z M204.6,269.3c0,2.6-2.1,4.7-4.7,4.7h-37.6c-2.6,0-4.7-2.1-4.7-4.7v-22.2
		c0-2.6,2.1-4.7,4.7-4.7H200c2.6,0,4.7,2.1,4.7,4.7L204.6,269.3L204.6,269.3z"/>
	<path d="M62.4,650.5H33.3c-2.1,0-3.8,1.7-3.8,3.8v20.9c0,2.1,1.7,3.8,3.8,3.8h29.1c2.1,0,3.8-1.7,3.8-3.8v-20.9
		C66.2,652.2,64.5,650.5,62.4,650.5z M64.2,675.2c0,1-0.8,1.8-1.8,1.8H33.3c-1,0-1.8-0.8-1.8-1.8v-20.9c0-1,0.8-1.8,1.8-1.8h29.1
		c1,0,1.8,0.8,1.8,1.8C64.2,654.3,64.2,675.2,64.2,675.2z"/>
	<path d="M204.3,650.5h-29.1c-2.1,0-3.8,1.7-3.8,3.8v20.9c0,2.1,1.7,3.8,3.8,3.8h29.1c2.1,0,3.8-1.7,3.8-3.8v-20.9
		C208.1,652.2,206.4,650.5,204.3,650.5z M206.1,675.2c0,1-0.8,1.8-1.8,1.8h-29.1c-1,0-1.8-0.8-1.8-1.8v-20.9c0-1,0.8-1.8,1.8-1.8
		h29.1c1,0,1.8,0.8,1.8,1.8V675.2z"/>
	<path d="M157,650.5h-29.1c-2.1,0-3.8,1.7-3.8,3.8v20.9c0,2.1,1.7,3.8,3.8,3.8H157c2.1,0,3.8-1.7,3.8-3.8v-20.9
		C160.8,652.2,159.1,650.5,157,650.5z M158.8,675.2c0,1-0.8,1.8-1.8,1.8h-29.1c-1,0-1.8-0.8-1.8-1.8v-20.9c0-1,0.8-1.8,1.8-1.8H157
		c1,0,1.8,0.8,1.8,1.8V675.2z"/>
	<path d="M109.7,650.5H80.6c-2.1,0-3.8,1.7-3.8,3.8v20.9c0,2.1,1.7,3.8,3.8,3.8h29.1c2.1,0,3.8-1.7,3.8-3.8v-20.9
		C113.5,652.2,111.8,650.5,109.7,650.5z M111.5,675.2c0,1-0.8,1.8-1.8,1.8H80.6c-1,0-1.8-0.8-1.8-1.8v-20.9c0-1,0.8-1.8,1.8-1.8
		h29.1c1,0,1.8,0.8,1.8,1.8V675.2z"/>
	<path d="M62.4,688.6H33.3c-2.1,0-3.8,1.7-3.8,3.8v20.9c0,2.1,1.7,3.8,3.8,3.8h29.1c2.1,0,3.8-1.7,3.8-3.8v-20.9
		C66.2,690.3,64.5,688.6,62.4,688.6z M64.2,713.3c0,1-0.8,1.8-1.8,1.8H33.3c-1,0-1.8-0.8-1.8-1.8v-20.9c0-1,0.8-1.8,1.8-1.8h29.1
		c1,0,1.8,0.8,1.8,1.8C64.2,692.4,64.2,713.3,64.2,713.3z"/>
	<path d="M62.4,726.7H33.3c-2.1,0-3.8,1.7-3.8,3.8v20.9c0,2.1,1.7,3.8,3.8,3.8h29.1c2.1,0,3.8-1.7,3.8-3.8v-20.9
		C66.2,728.5,64.5,726.7,62.4,726.7z M64.2,751.4c0,1-0.8,1.8-1.8,1.8H33.3c-1,0-1.8-0.8-1.8-1.8v-20.9c0-1,0.8-1.8,1.8-1.8h29.1
		c1,0,1.8,0.8,1.8,1.8C64.2,730.5,64.2,751.4,64.2,751.4z"/>
	<path d="M204.3,688.6h-29.1c-2.1,0-3.8,1.7-3.8,3.8v20.9c0,2.1,1.7,3.8,3.8,3.8h29.1c2.1,0,3.8-1.7,3.8-3.8v-20.9
		C208.1,690.3,206.4,688.6,204.3,688.6z M206.1,713.3c0,1-0.8,1.8-1.8,1.8h-29.1c-1,0-1.8-0.8-1.8-1.8v-20.9c0-1,0.8-1.8,1.8-1.8
		h29.1c1,0,1.8,0.8,1.8,1.8V713.3z"/>
	<path d="M157,688.6h-29.1c-2.1,0-3.8,1.7-3.8,3.8v20.9c0,2.1,1.7,3.8,3.8,3.8H157c2.1,0,3.8-1.7,3.8-3.8v-20.9
		C160.8,690.3,159.1,688.6,157,688.6z M158.8,713.3c0,1-0.8,1.8-1.8,1.8h-29.1c-1,0-1.8-0.8-1.8-1.8v-20.9c0-1,0.8-1.8,1.8-1.8H157
		c1,0,1.8,0.8,1.8,1.8V713.3z"/>
	<path d="M109.7,688.6H80.6c-2.1,0-3.8,1.7-3.8,3.8v20.9c0,2.1,1.7,3.8,3.8,3.8h29.1c2.1,0,3.8-1.7,3.8-3.8v-20.9
		C113.5,690.3,111.8,688.6,109.7,688.6z M111.5,713.3c0,1-0.8,1.8-1.8,1.8H80.6c-1,0-1.8-0.8-1.8-1.8v-20.9c0-1,0.8-1.8,1.8-1.8
		h29.1c1,0,1.8,0.8,1.8,1.8V713.3z"/>
	<path d="M204.3,726.7h-29.1c-2.1,0-3.8,1.7-3.8,3.8v20.9c0,2.1,1.7,3.8,3.8,3.8h29.1c2.1,0,3.8-1.7,3.8-3.8v-20.9
		C208.1,728.5,206.4,726.7,204.3,726.7z M206.1,751.4c0,1-0.8,1.8-1.8,1.8h-29.1c-1,0-1.8-0.8-1.8-1.8v-20.9c0-1,0.8-1.8,1.8-1.8
		h29.1c1,0,1.8,0.8,1.8,1.8V751.4z"/>
	<path d="M157,726.7h-29.1c-2.1,0-3.8,1.7-3.8,3.8v20.9c0,2.1,1.7,3.8,3.8,3.8H157c2.1,0,3.8-1.7,3.8-3.8v-20.9
		C160.8,728.5,159.1,726.7,157,726.7z M158.8,751.4c0,1-0.8,1.8-1.8,1.8h-29.1c-1,0-1.8-0.8-1.8-1.8v-20.9c0-1,0.8-1.8,1.8-1.8H157
		c1,0,1.8,0.8,1.8,1.8V751.4z"/>
	<path d="M109.7,726.7H80.6c-2.1,0-3.8,1.7-3.8,3.8v20.9c0,2.1,1.7,3.8,3.8,3.8h29.1c2.1,0,3.8-1.7,3.8-3.8v-20.9
		C113.5,728.5,111.8,726.7,109.7,726.7z M111.5,751.4c0,1-0.8,1.8-1.8,1.8H80.6c-1,0-1.8-0.8-1.8-1.8v-20.9c0-1,0.8-1.8,1.8-1.8
		h29.1c1,0,1.8,0.8,1.8,1.8V751.4z"/>
	<path d="M37.3,432.7c-3.7,0-6.7,3-6.7,6.7v22.2c0,3.7,3,6.7,6.7,6.7h37.6c3.7,0,6.7-3,6.7-6.7v-22.2c0-3.7-3-6.7-6.7-6.7H37.3z
		 M79.6,439.4v22.2c0,2.6-2.1,4.7-4.7,4.7H37.3c-2.6,0-4.7-2.1-4.7-4.7v-22.2c0-2.6,2.1-4.7,4.7-4.7h37.6
		C77.5,434.7,79.6,436.8,79.6,439.4z"/>
	<path d="M96,427.8v31.9c0,4.6,3.7,8.3,8.3,8.3h28.6c4.6,0,8.3-3.7,8.3-8.3v-31.9c0-4.6-3.7-8.3-8.3-8.3h-28.6
		C99.7,419.5,96,423.2,96,427.8z M104.3,421.5h28.6c3.5,0,6.3,2.8,6.3,6.3v31.9c0,3.5-2.8,6.3-6.3,6.3h-28.6c-3.5,0-6.3-2.8-6.3-6.3
		v-31.9C98,424.3,100.8,421.5,104.3,421.5z"/>
	<path d="M206.6,439.4c0-3.7-3-6.7-6.7-6.7h-37.6c-3.7,0-6.7,3-6.7,6.7v22.2c0,3.7,3,6.7,6.7,6.7H200c3.7,0,6.7-3,6.7-6.7
		L206.6,439.4L206.6,439.4z M204.6,461.6c0,2.6-2.1,4.7-4.7,4.7h-37.6c-2.6,0-4.7-2.1-4.7-4.7v-22.2c0-2.6,2.1-4.7,4.7-4.7H200
		c2.6,0,4.7,2.1,4.7,4.7L204.6,461.6L204.6,461.6z"/>
	<path d="M35.9,520.2h34.8c5.2,0,9.5-4.3,9.5-9.5v-19.4c0-3.7-3-6.7-6.7-6.7H35.9c-3.7,0-6.7,3-6.7,6.7v22.2
		C29.2,517.2,32.2,520.2,35.9,520.2z M31.2,491.3c0-2.6,2.1-4.7,4.7-4.7h37.6c2.6,0,4.7,2.1,4.7,4.7v19.4c0,4.1-3.4,7.5-7.5,7.5
		H35.9c-2.6,0-4.7-2.1-4.7-4.7V491.3z"/>
	<path d="M198.6,484.6H161c-3.7,0-6.7,3-6.7,6.7v19.4c0,5.2,4.3,9.5,9.5,9.5h34.8c3.7,0,6.7-3,6.7-6.7v-22.2
		C205.2,487.6,202.2,484.6,198.6,484.6z M203.2,513.5c0,2.6-2.1,4.7-4.7,4.7h-34.8c-4.1,0-7.5-3.4-7.5-7.5v-19.4
		c0-2.6,2.1-4.7,4.7-4.7h37.6c2.6,0,4.7,2.1,4.7,4.7V513.5z"/>
	<path d="M30.6,294.3v120.1c0,2.1,1.7,3.8,3.8,3.8h50.8c2.1,0,3.8-1.7,3.8-3.8V294.3c0-2.1-1.7-3.8-3.8-3.8H34.5
		C32.4,290.5,30.6,292.2,30.6,294.3z M87.1,294.3v120.1c0,1-0.8,1.8-1.8,1.8H34.5c-1,0-1.8-0.8-1.8-1.8V294.3c0-1,0.8-1.8,1.8-1.8
		h50.8C86.3,292.5,87.1,293.3,87.1,294.3z"/>
	<path d="M152.3,418.2h50.8c2.1,0,3.8-1.7,3.8-3.8V294.3c0-2.1-1.7-3.8-3.8-3.8h-50.8c-2.1,0-3.8,1.7-3.8,3.8v120.1
		C148.5,416.5,150.2,418.2,152.3,418.2z M150.5,294.3c0-1,0.8-1.8,1.8-1.8h50.8c1,0,1.8,0.8,1.8,1.8v120.1c0,1-0.8,1.8-1.8,1.8
		h-50.8c-1,0-1.8-0.8-1.8-1.8V294.3z"/>
	<path d="M106.1,342.8h25.2c4.1,0,7.4-3.3,7.4-7.4V304c0-4.1-3.3-7.4-7.4-7.4h-25.2c-4.1,0-7.4,3.3-7.4,7.4v31.4
		C98.6,339.4,102,342.8,106.1,342.8z M100.6,303.9c0-3,2.4-5.4,5.4-5.4h25.2c3,0,5.4,2.4,5.4,5.4v31.4c0,3-2.4,5.4-5.4,5.4H106
		c-3,0-5.4-2.4-5.4-5.4V303.9z"/>
	<path d="M98.6,394.1c0,4.1,3.3,7.4,7.4,7.4h25.2c4.1,0,7.4-3.3,7.4-7.4v-31.4c0-4.1-3.3-7.4-7.4-7.4H106c-4.1,0-7.4,3.3-7.4,7.4
		V394.1z M100.6,362.7c0-3,2.4-5.4,5.4-5.4h25.2c3,0,5.4,2.4,5.4,5.4v31.4c0,3-2.4,5.4-5.4,5.4H106c-3,0-5.4-2.4-5.4-5.4V362.7z"/>
	<path d="M80.2,629.7v-19.4c0-5.2-4.3-9.5-9.5-9.5H35.9c-3.7,0-6.7,3-6.7,6.7v22.2c0,3.7,3,6.7,6.7,6.7h37.6
		C77.2,636.4,80.2,633.4,80.2,629.7z M78.2,629.7c0,2.6-2.1,4.7-4.7,4.7H35.9c-2.6,0-4.7-2.1-4.7-4.7v-22.2c0-2.6,2.1-4.7,4.7-4.7
		h34.8c4.1,0,7.5,3.4,7.5,7.5V629.7z"/>
	<path d="M205.2,629.7v-22.2c0-3.7-3-6.7-6.7-6.7h-34.8c-5.2,0-9.5,4.3-9.5,9.5v19.4c0,3.7,3,6.7,6.7,6.7h37.6
		C202.2,636.4,205.2,633.4,205.2,629.7z M156.3,629.7v-19.4c0-4.1,3.4-7.5,7.5-7.5h34.8c2.6,0,4.7,2.1,4.7,4.7v22.2
		c0,2.6-2.1,4.7-4.7,4.7H161C158.4,634.4,156.3,632.3,156.3,629.7z"/>
	<path d="M206.6,0H30.9C13.9,0,0,13.9,0,30.9v831.4c0,17,13.9,30.9,30.9,30.9h175.7c17,0,30.9-13.9,30.9-30.9V30.9
		C237.5,13.9,223.7,0,206.6,0z M144.7,4c-5.9,2.6-12.1,4.3-18.5,5c-0.3-0.1-0.7-0.2-1-0.4c-0.2-0.1-0.5-0.2-0.7-0.3
		c-0.4-0.1-0.8-0.2-1.2-0.3c-0.2-0.1-0.5-0.1-0.7-0.2c-0.4-0.1-0.9-0.1-1.3-0.2c-0.2,0-0.4-0.1-0.5-0.1c-1.3-0.1-2.6-0.1-3.8,0
		c-0.2,0-0.3,0.1-0.5,0.1c-0.5,0.1-0.9,0.1-1.4,0.2c-0.2,0-0.4,0.1-0.6,0.2c-0.4,0.1-0.8,0.2-1.2,0.3c-0.2,0.1-0.5,0.2-0.7,0.3
		c-0.3,0.1-0.7,0.2-1,0.4C105,8.3,98.8,6.6,92.9,4H144.7z M4,862.3V30.9c0-8.2,3.7-15.5,9.4-20.4c-1.7,2.9-2.8,6.3-2.8,10v852.3
		c0,3.6,1,7,2.8,10C7.7,877.8,4,870.4,4,862.3z M217.8,886.7c-3.4,1.6-7.2,2.4-11.2,2.4H30.9c-4,0-7.8-0.9-11.2-2.4
		c-4.3-3.2-7.1-8.3-7.1-14V20.4c0-5.7,2.8-10.8,7.1-14C23.1,4.9,26.9,4,30.9,4h59.6c6.1,2.9,12.5,4.8,19.2,5.8h-0.1l1.9,0.2h0.1l0,0
		c2.4,0.3,4.8,0.4,7.2,0.4c2.4,0,4.8-0.1,7.2-0.4l0,0h0.1l1.9-0.2h-0.1c6.7-0.9,13.1-2.9,19.2-5.8h59.6c4,0,7.8,0.9,11.2,2.4
		c4.3,3.2,7.1,8.3,7.1,14v852.3C224.9,878.5,222.1,883.6,217.8,886.7z M233.5,862.3c0,8.2-3.7,15.5-9.4,20.4c1.7-2.9,2.8-6.3,2.8-10
		V20.4c0-3.6-1-7-2.8-10c5.8,4.9,9.4,12.3,9.4,20.4V862.3z"/>
	<path d="M202.3,540.6l-41.5-1.7c-7.4-0.2-14.7-1.4-17.6-8.8c-0.4-1-0.7-2.2-1-3.5c-1-5.1-1.2-10.5-1.3-15.8c0-1.3-0.1-2.7-0.1-4
		l-0.8-17.6c-0.3-6.9-5.8-12.3-12.5-12.3h-17.7c-6.7,0-12.2,5.4-12.5,12.3l-0.8,17.6c-0.1,1.3-0.1,2.7-0.1,4
		c-0.2,5.3-0.4,10.7-1.3,15.8c-0.3,1.3-0.6,2.4-0.9,3.5c-2.9,7.4-10.2,8.6-17.6,8.9l-41.5,1.7c-6.9,0.3-12.3,5.7-12.3,12.3v16.4
		c0,6.6,5.4,12.1,12.3,12.3l41.5,1.7c7.4,0.2,14.7,1.4,17.6,8.8c0.4,1.1,0.7,2.2,1,3.5c1,5.1,1.2,10.5,1.3,15.8c0,1.3,0.1,2.7,0.1,4
		l0.8,17.6c0.3,6.9,5.8,12.3,12.5,12.3h17.7c6.7,0,12.2-5.4,12.5-12.3l0.8-17.6c0.1-1.3,0.1-2.7,0.1-4c0.2-5.3,0.4-10.7,1.3-15.8
		c0.3-1.3,0.6-2.4,0.9-3.5c2.9-7.4,10.2-8.6,17.6-8.9l41.5-1.7c6.9-0.3,12.3-5.7,12.3-12.3V553C214.6,546.3,209.2,540.9,202.3,540.6
		z M212.6,569.4c0,5.6-4.6,10.1-10.4,10.3l-41.5,1.7c-7.7,0.2-16.1,1.6-19.4,10.1c-0.4,1.2-0.8,2.4-1,3.8l0,0
		c-1,5.2-1.2,10.8-1.4,16.1c0,1.3-0.1,2.7-0.1,4L138,633c-0.2,5.8-4.9,10.4-10.5,10.4h-17.7c-5.7,0-10.3-4.6-10.5-10.4l-0.8-17.6
		c-0.1-1.3-0.1-2.6-0.1-4c-0.2-5.4-0.4-10.9-1.4-16.1c-0.3-1.4-0.6-2.6-1-3.8c-3.4-8.5-11.7-9.9-19.4-10.1L35,579.7
		c-5.8-0.2-10.4-4.8-10.4-10.3V553c0-5.6,4.6-10.1,10.4-10.3l41.5-1.7c7.7-0.2,16.1-1.6,19.4-10.1c0.4-1.2,0.8-2.4,1-3.8
		c1-5.2,1.2-10.8,1.4-16.1c0-1.3,0.1-2.7,0.1-4l0.8-17.6c0.2-5.8,4.9-10.4,10.5-10.4h17.7c5.7,0,10.3,4.6,10.5,10.4l0.8,17.6
		c0.1,1.3,0.1,2.6,0.1,4c0.2,5.4,0.4,10.9,1.4,16.1c0.3,1.4,0.6,2.6,1,3.8c3.4,8.5,11.7,9.9,19.4,10.1l41.5,1.7
		c5.8,0.2,10.4,4.8,10.4,10.3v16.4H212.6z"/>
	<path d="M79.3,544.5L79.3,544.5L79.3,544.5c-0.9,0.1-1.8,0.1-2.6,0.1l-41.5,1.7c-3.8,0.2-6.9,3.1-6.9,6.7v16.4c0,3.6,3,6.5,6.9,6.7
		l41.4,1.7c0.9,0,1.7,0.1,2.6,0.1h0.1h0.1c3.5-0.1,7.5-1.1,7.5-7.5V552C86.8,545.6,82.8,544.6,79.3,544.5z M84.8,570.4
		c0,4.4-2,5.4-5.5,5.5c-0.9-0.1-1.7-0.1-2.6-0.1l-41.4-1.7c-2.4-0.1-4.9-1.9-4.9-4.7V553c0-2.8,2.5-4.6,4.9-4.7l41.5-1.7
		c0.9,0,1.7-0.1,2.5-0.1c3.5,0.2,5.5,1.1,5.5,5.5V570.4z"/>
	<path d="M109.4,529.4h18.4c2.6,0,4.5-0.6,5.8-1.9c1.9-1.9,2.1-5.1,2-8c-0.1-1.4-0.2-2.9-0.3-4.8c0-1.2-0.1-2.4-0.1-3.6
		c0-1.3-0.1-2.7-0.1-4l-0.8-17.6c-0.2-3.8-3.2-6.9-6.9-6.9h-17.7c-3.6,0-6.7,3.1-6.9,6.9l-0.8,17.6c-0.1,1.3-0.1,2.7-0.1,4
		c0,1.2-0.1,2.4-0.1,3.6c-0.1,1.8-0.2,3.3-0.3,4.7v0.1c-0.1,2.8,0.1,6,2,7.9C104.9,528.7,106.8,529.4,109.4,529.4z M103.6,519.5
		c0.1-1.4,0.2-2.9,0.3-4.8c0-1.2,0.1-2.4,0.1-3.6c0-1.3,0.1-2.7,0.1-4l0.8-17.6c0.1-2.7,2.3-5,4.9-5h17.7c2.6,0,4.7,2.2,4.9,5
		l0.8,17.6c0.1,1.3,0.1,2.6,0.1,4c0,1.2,0.1,2.4,0.1,3.6c0.1,1.9,0.2,3.4,0.3,4.8c0.1,3.4-0.4,5.4-1.5,6.5c-0.9,0.9-2.3,1.3-4.4,1.3
		h-18.4c-2,0-3.5-0.4-4.4-1.3C104,524.9,103.6,523,103.6,519.5z"/>
	<path d="M202.1,546.3l-41.4-1.7c-0.9,0-1.7-0.1-2.6-0.1H158h-0.1c-3.5,0.1-7.5,1.1-7.5,7.5v18.4c0,6.4,4,7.4,7.5,7.5h0.1h0.1
		c0.8-0.1,1.7-0.1,2.5-0.1l41.5-1.7c3.8-0.2,6.9-3.1,6.9-6.7V553C208.9,549.4,205.9,546.5,202.1,546.3z M206.9,569.4
		c0,2.8-2.5,4.6-4.9,4.7l-41.5,1.7c-0.9,0-1.7,0.1-2.5,0.1c-3.5-0.2-5.5-1.1-5.5-5.5V552c0-4.4,2-5.4,5.5-5.5
		c0.9,0.1,1.7,0.1,2.6,0.1l41.4,1.7c2.4,0.1,4.9,1.9,4.9,4.7V569.4z"/>
	<path d="M131,541.7h-24.5c-4,0-7.3,3.3-7.3,7.3v23.4c0,4.6,3.8,8.4,8.4,8.4H131c4,0,7.3-3.3,7.3-7.3V549
		C138.3,544.9,135,541.7,131,541.7z M131,578.7h-23.4c-3.5,0-6.4-2.9-6.4-6.4v-23.4c0-2.9,2.4-5.3,5.3-5.3H131
		c2.9,0,5.3,2.4,5.3,5.3v24.5C136.3,576.4,133.9,578.7,131,578.7z"/>
	<path d="M128,593h-18.4c-2.6,0-4.5,0.6-5.8,1.9c-1.9,1.9-2.1,5.1-2,8c0.1,1.4,0.2,2.9,0.3,4.7c0,1.2,0.1,2.4,0.1,3.6
		c0,1.3,0.1,2.7,0.1,4l0.8,17.6c0.2,3.8,3.2,6.9,6.9,6.9h17.7c3.6,0,6.7-3.1,6.9-6.9l0.8-17.6c0.1-1.3,0.1-2.7,0.1-4
		c0-1.2,0.1-2.4,0.1-3.6c0.1-1.8,0.2-3.3,0.3-4.7v-0.1c0.1-2.8-0.1-6-2-7.9C132.5,593.7,130.6,593,128,593z M133.5,607.6
		c0,1.2-0.1,2.4-0.1,3.6c0,1.3-0.1,2.7-0.1,4l-0.8,17.6c-0.1,2.7-2.3,5-4.9,5h-17.7c-2.6,0-4.7-2.2-4.9-5l-0.8-17.6
		c-0.1-1.3-0.1-2.7-0.1-4c0-1.2-0.1-2.4-0.1-3.6c-0.1-1.8-0.2-3.4-0.3-4.7c-0.1-3.4,0.4-5.4,1.5-6.5c0.9-0.9,2.3-1.3,4.4-1.3H128
		c2,0,3.5,0.4,4.4,1.3c1.1,1.1,1.5,3.1,1.5,6.5C133.7,604.3,133.6,605.8,133.5,607.6z"/>
</g>
<g>
	<path d="M170.4,348.3v17.2h5.3v-6.4h2.9c2.1,0,3.7-0.5,4.8-1.5c1-1,1.6-2.3,1.6-4.1c0-1.7-0.5-3-1.4-3.9c-1-0.9-2.4-1.4-4.3-1.4
		L170.4,348.3L170.4,348.3z M179.8,353.8c0,0.6-0.2,1-0.6,1.4c-0.4,0.4-1.1,0.5-2.2,0.5h-1.3v-3.8h1.5c1,0,1.7,0.2,2,0.6
		C179.6,352.8,179.8,353.2,179.8,353.8z"/>
	<path d="M165.2,328.3l12.5-8.9l12.5,8.9c0.5,0.4,1.1,0.5,1.6,0.5c0.9,0,1.8-0.4,2.3-1.2c0.9-1.3,0.6-3-0.7-4l-14.1-10
		c-1-0.7-2.3-0.7-3.3,0l-14.1,10c-1.3,0.9-1.6,2.7-0.7,4C162.2,328.9,163.9,329.2,165.2,328.3z"/>
	<path d="M177.7,401.1c0.6,0,1.2-0.2,1.6-0.5l14.1-10c1.3-0.9,1.6-2.7,0.7-4c-0.9-1.3-2.7-1.6-4-0.7l-12.5,8.9l-12.5-8.9
		c-1.3-0.9-3-0.6-4,0.7c-0.9,1.3-0.6,3,0.7,4l14.1,10C176.5,401,177.1,401.1,177.7,401.1z"/>
	<polygon points="62.7,341.1 62.7,329.4 74.4,329.4 74.4,323.7 62.7,323.7 62.7,312 57,312 57,323.7 45.3,323.7 45.3,329.4
		57,329.4 57,341.1 	"/>
	<rect x="45.3" y="390.5" width="29.1" height="5.7"/>
	<polygon points="76.2,362.2 76.2,351.3 43.6,362.2 	"/>
	<path d="M181,505.1l-3.3,0.5l-0.2,0.8c0.1,0,0.3,0,0.4,0c0.2,0,0.4,0.1,0.5,0.2s0.2,0.2,0.2,0.4c0,0.2-0.1,0.5-0.2,1l-1.3,4
		c-0.1,0.4-0.2,0.6-0.2,0.9c0,0.3,0.1,0.6,0.4,0.8c0.2,0.2,0.6,0.3,1,0.3c1.1,0,2.1-0.8,3-2.5l-0.7-0.4c-0.4,0.6-1,0.9-1,0.7l2-6.5
		H181V505.1z"/>
	<path d="M182.1,502.2c0-0.4-0.1-0.7-0.4-1c-0.3-0.3-0.6-0.4-1-0.4s-0.7,0.1-1,0.4s-0.4,0.6-0.4,1s0.1,0.7,0.4,1
		c0.3,0.3,0.6,0.4,1,0.4s0.7-0.1,1-0.4C182,502.9,182.1,502.5,182.1,502.2z"/>
	<path d="M54.2,81.9c3.9,0,7.5-1.5,10.3-4.3c2.7-2.7,4.3-6.4,4.3-10.3s-1.5-7.5-4.3-10.3c-1.5-1.5-3.4-2.7-5.4-3.4L58,57
		c1.5,0.5,2.9,1.4,4,2.6c2.1,2.1,3.2,4.9,3.2,7.8s-1.1,5.7-3.2,7.8s-4.9,3.2-7.8,3.2c-2.9,0-5.7-1.1-7.8-3.2s-3.2-4.9-3.2-7.8
		s1.1-5.7,3.2-7.8c1.1-1.1,2.5-2,4-2.6l-1.1-3.3c-2,0.7-3.9,1.9-5.4,3.4c-2.7,2.7-4.3,6.4-4.3,10.3s1.5,7.5,4.3,10.3
		S50.4,81.9,54.2,81.9z"/>
	<rect x="52.5" y="49.7" width="3.5" height="16.3"/>
	<path d="M103.7,740.6c-4.5-2.3-9.1-4.5-13.6-6.8c-0.5-0.3-0.8-0.3-0.8,0.5l0,0v4.2v4.5v0.1v0.1v0.1v0.1v0.1v0.1v0.1v0.1v0.1v0.1
		v0.1v0.1v0.1v0.1v0.1v0.1v0.1v0.1v0.1v0.1v0.1v0.1v0.1v0.1v0.1v0.1v0.1v0.1v0.1v0.1v0.1v0.1v0.1v0.1v0.1v0.1v0.1v0.1v0.1v0.1v0.1
		v0.1v0.1v1.5c0,0.7,0.3,0.9,0.9,0.5c4.8-2.4,9.1-4.5,13.6-6.8C104.4,741.1,104.4,741,103.7,740.6z"/>
	<path d="M200.1,740.7c-3.9-1.9-7.8-3.9-11.7-5.8c-0.5-0.2-0.7-0.3-0.7,0.5l0,0v3.6v0.5c-3.1-1.5-6.2-3.1-9.2-4.6
		c-0.5-0.2-0.7-0.3-0.7,0.5l0,0v3.6v3.9v0.1v0.1v0.1v0.1v0.1v0.1v0.1v0.1v0.1v0.1v0.1v0.1v0.1v0.1v0.1v0.1v0.1v0.1v0.1v0.1v0.1v0.1
		v0.1v0.1v0.1v0.1v0.1v0.1v0.1v0.1v0.1v0.1v0.1v0.1v0.1v0.1v0.1v0.1v0.1v0.1v0.1v0.1v0.1v1.3c0,0.6,0.2,0.7,0.8,0.5
		c3.2-1.6,6.1-3.1,9.1-4.6v0.2v0.1v0.1v0.1v0.1v0.1v0.1v0.1v0.1v0.1v0.1v0.1v0.1v0.1v0.1v0.1v0.1v0.1v0.1v0.1v0.1v0.1v0.1v0.1v0.1
		v0.1v0.1v0.1v0.1v0.1v0.1v0.1v0.1v0.1v0.1v0.1v0.1v0.1v0.1v0.1v0.1v0.1v0.1v0.1v1.3c0,0.6,0.2,0.7,0.8,0.5
		c4.1-2.1,7.8-3.9,11.7-5.8C200.7,741.1,200.7,741,200.1,740.7z"/>
	<path d="M58.9,734.8c-3.1,1.5-6.2,3.1-9.2,4.6v-0.5v-3.6l0,0c0-0.7-0.2-0.7-0.7-0.5c-3.9,1.9-7.8,3.9-11.7,5.8
		c-0.6,0.3-0.5,0.4-0.1,0.6c3.9,1.9,7.6,3.8,11.7,5.8c0.6,0.3,0.8,0.2,0.8-0.5v-1.3v-0.1V745v-0.1v-0.1v-0.1v-0.1v0.4v-0.1v-0.1
		v-0.1v-0.1v-0.1v-0.1v-0.1v-0.1v-0.1V744v-0.1v-0.1v-0.1v-0.1v-0.1v0.5l0,0v-0.1v-0.1v-0.1v-0.1v-0.1v-0.1v-0.1v-0.1v-0.1V743v-0.1
		v-0.1v-0.1v-0.1v-0.1v0.5v-0.1v-0.1v-0.1v-0.2c3,1.5,5.9,3,9.1,4.6c0.6,0.3,0.8,0.2,0.8-0.5v-1.3v-0.1v-0.1V745v-0.1v-0.1v-0.1v0.3
		v-0.1v-0.1v-0.1v-0.1v-0.1v-0.1v-0.1v-0.1v-0.1V744v-0.1v-0.1v-0.1v-0.1v-0.1v0.5l0,0v-0.1v-0.1v-0.1v-0.1v-0.1v-0.1v-0.1v-0.1
		v-0.1V743v-0.1v-0.1v-0.1v-0.1v-0.1v0.5v-0.1v-0.1v-0.1v-3.9v-3.6l0,0C59.6,734.6,59.4,734.6,58.9,734.8z"/>
	<path d="M59.6,630.8c0.8-0.6,1.5-1.4,1.9-2.3c0.5-0.9,0.8-1.9,0.9-2.9c0.1-1,0-2-0.3-3s-0.8-1.9-1.4-2.7c-0.6-0.8-1.4-1.5-2.3-1.9
		s-1.9-0.8-2.9-0.9c-1-0.1-2,0-3,0.3s-1.9,0.8-2.7,1.4c-0.3,0.3-0.6,0.5-0.9,0.9l-1-0.6l0,0c-0.3-0.2-0.4-0.1-0.4,0.2l-0.5,4.4
		c-0.1,0.3-0.1,0.6-0.1,1l-0.2,1.7c0,0.3,0,0.4,0.3,0.2c2-1.2,4-2.4,6-3.6c0.3-0.2,0.3-0.3,0-0.5l-0.6-0.4l0,0l0,0l0,0l0,0l0,0l0,0
		l0,0l0,0l0,0l0,0l0,0l0,0l0,0l0,0l0,0l0,0l0,0l0,0l0,0l0,0l0,0l0,0l0,0l0,0l0,0l0,0l0,0l0,0l0,0l0,0l0,0l0,0l0,0l0,0l0,0l0,0l0,0
		l0,0l0,0l0,0l0,0l0,0c0.1-0.1,0.2-0.1,0.2-0.2c0.5-0.4,1.1-0.7,1.7-0.9c0.6-0.2,1.3-0.2,1.9-0.2c0.6,0.1,1.3,0.3,1.8,0.6
		c0.6,0.3,1.1,0.7,1.5,1.2s0.7,1.1,0.9,1.7c0.2,0.6,0.2,1.3,0.2,1.9c-0.1,0.6-0.3,1.3-0.6,1.8c-0.6,1.1-1.6,2-2.9,2.3
		c-0.6,0.2-1.3,0.2-1.9,0.2c-0.6-0.1-1.3-0.3-1.8-0.6c-0.3-0.2-0.7-0.4-0.9-0.7c-0.3-0.3-0.5-0.5-0.7-0.9l-0.2-0.3l-2.3,1.6l0.2,0.3
		c0.3,0.5,0.7,0.9,1.2,1.3c0.4,0.4,0.9,0.8,1.5,1c0.9,0.5,1.9,0.8,2.9,0.9c1,0.1,2,0,3-0.3C57.9,631.9,58.8,631.5,59.6,630.8z"/>
	<path d="M180.8,628.7h1v3.7l6.5-3.7v-10.8h-7.5h-3.7v5.3c-1-0.5-2-1-2.9-1.5c-0.1-0.1-0.2-0.1-0.2,0.1l0,0v0.7h-2.8v1.4h2.8l0,0
		l0,0l0,0l0,0l0,0l0,0l0,0l0,0l0,0l0,0l0,0l0,0l0,0l0,0l0,0l0,0l0,0l0,0l0,0l0,0l0,0l0,0l0,0l0,0l0,0l0,0l0,0l0,0l0,0v0.3
		c0,0.2,0.1,0.2,0.2,0.1c1-0.5,1.9-1,2.9-1.5v5.2h3.7V628.7z M178.8,619.7h1.9h4.3l-3.3,1.9v5.3h-1h-1.9V619.7z"/>
	<path d="M183.8,698.6v8.5c0,0.9,0.8,1.7,1.7,1.7h8.4c0.9,0,1.7-0.8,1.7-1.7v-8.5c0-0.9-0.8-1.7-1.7-1.7h-8.4
		C184.6,696.9,183.8,697.7,183.8,698.6z"/>
	<path d="M147.4,735h-3.5c-0.5,0-0.9,0.4-0.9,0.9V746c0,0.5,0.4,0.9,0.9,0.9h3.5c0.5,0,0.9-0.4,0.9-0.9v-10.1
		C148.3,735.4,147.9,735,147.4,735z"/>
	<path d="M140.9,735h-3.5c-0.5,0-0.9,0.4-0.9,0.9V746c0,0.5,0.4,0.9,0.9,0.9h3.5c0.5,0,0.9-0.4,0.9-0.9v-10.1
		C141.8,735.4,141.4,735,140.9,735z"/>
	<path d="M192.7,68.6c0-2-1.6-3.5-3.5-3.5h-16.7c-2,0-3.5,1.6-3.5,3.5v3.9h-3.6v1.6h3.6V78c0,2,1.6,3.5,3.5,3.5h16.7
		c2,0,3.5-1.6,3.5-3.5V68.6z M191.3,78c0,1.2-1,2.1-2.1,2.1h-16.7c-1.2,0-2.1-1-2.1-2.1v-3.9h5.2c0,0.7-0.1,1.7-0.1,2.4
		c0,0.3,0.1,0.4,0.4,0.2c2.2-1.1,4.2-2.1,6.2-3.1c0.2-0.1,0.3-0.2,0-0.3c-2.1-1-4.2-2.1-6.3-3.1c-0.2-0.1-0.4-0.1-0.4,0.3v2.1h-5.1
		v-3.9c0-1.2,1-2.1,2.1-2.1h16.7c1.2,0,2.1,1,2.1,2.1V78H191.3z"/>
	<path d="M163.6,61.1c0.9,0,1.7-0.2,2.2-0.6c0.5-0.4,0.8-1.1,0.8-2c0-0.3,0-0.5-0.1-0.7c0-0.2-0.1-0.4-0.3-0.6
		c-0.1-0.2-0.3-0.3-0.5-0.5s-0.5-0.3-0.8-0.4l-1.3-0.6c-0.4-0.2-0.6-0.3-0.7-0.5c-0.1-0.2-0.2-0.4-0.2-0.7c0-0.1,0-0.3,0-0.4
		c0-0.1,0.1-0.2,0.2-0.3c0.1-0.1,0.2-0.2,0.3-0.2c0.1-0.1,0.3-0.1,0.5-0.1c0.3,0,0.6,0.1,0.7,0.3c0.1,0.2,0.2,0.5,0.2,0.9h1.7v-0.2
		c0-0.4-0.1-0.8-0.2-1s-0.3-0.5-0.6-0.7c-0.2-0.2-0.5-0.3-0.8-0.4c-0.3-0.1-0.7-0.1-1.1-0.1c-0.8,0-1.5,0.2-1.9,0.6
		c-0.5,0.4-0.7,1-0.7,1.9c0,0.4,0,0.7,0.1,0.9c0.1,0.3,0.2,0.5,0.4,0.7s0.4,0.4,0.7,0.5c0.3,0.2,0.6,0.3,1,0.4
		c0.3,0.1,0.5,0.2,0.7,0.3s0.4,0.2,0.5,0.3s0.2,0.2,0.3,0.4c0.1,0.1,0.1,0.3,0.1,0.5c0,0.4-0.1,0.6-0.3,0.8s-0.5,0.3-0.7,0.3
		s-0.4,0-0.6-0.1c-0.1-0.1-0.3-0.2-0.4-0.3c-0.1-0.1-0.1-0.2-0.2-0.4s0-0.3,0-0.5v-0.3h-1.7v0.3c0,0.8,0.2,1.4,0.6,1.8
		S162.6,61.1,163.6,61.1z"/>
	<path d="M167.7,59.9c0.2,0.4,0.5,0.7,0.9,0.9s0.9,0.3,1.5,0.3s1.2-0.1,1.5-0.3s0.7-0.5,0.9-0.9s0.3-0.9,0.4-1.4
		c0.1-0.5,0.1-1.1,0.1-1.8c0-0.6,0-1.2-0.1-1.8c-0.1-0.5-0.2-1-0.4-1.4s-0.5-0.7-0.9-0.9s-0.9-0.3-1.5-0.3s-1.2,0.1-1.5,0.3
		c-0.4,0.2-0.7,0.5-0.9,0.9s-0.3,0.9-0.4,1.4s-0.1,1.1-0.1,1.8s0,1.3,0.1,1.8C167.4,59,167.5,59.5,167.7,59.9z M169,55.2
		c0-0.4,0.1-0.7,0.2-1s0.2-0.4,0.4-0.6s0.4-0.2,0.6-0.2s0.5,0.1,0.6,0.2c0.2,0.1,0.3,0.3,0.4,0.6s0.1,0.6,0.2,1c0,0.4,0,0.9,0,1.5
		s0,1.1,0,1.5s-0.1,0.7-0.2,1s-0.2,0.4-0.4,0.6c-0.2,0.1-0.4,0.2-0.6,0.2s-0.5-0.1-0.6-0.2c-0.2-0.1-0.3-0.3-0.4-0.6s-0.1-0.6-0.2-1
		c0-0.4,0-0.9,0-1.5S169,55.6,169,55.2z"/>
	<path d="M174.8,60.6c0.3,0.2,0.5,0.3,0.9,0.4c0.3,0.1,0.7,0.1,1,0.1c0.4,0,0.7,0,1-0.1s0.6-0.2,0.9-0.4c0.3-0.2,0.5-0.5,0.6-0.8
		c0.2-0.4,0.2-0.8,0.2-1.3v-6h-1.7v6c0,0.2,0,0.4,0,0.6c0,0.2-0.1,0.3-0.2,0.5c-0.1,0.1-0.2,0.2-0.3,0.3s-0.3,0.1-0.5,0.1
		s-0.4,0-0.5-0.1s-0.2-0.2-0.3-0.3s-0.1-0.3-0.2-0.5s0-0.4,0-0.6v-6H174v6c0,0.6,0.1,1,0.2,1.4C174.4,60.1,174.6,60.4,174.8,60.6z"
		/>
	<path d="M182.3,57.3h0.9c0.4,0,0.6,0.1,0.8,0.3s0.2,0.5,0.3,0.8V60c0,0.2,0,0.3,0,0.5s0.1,0.3,0.2,0.4h1.9v-0.1
		c-0.2-0.1-0.3-0.3-0.3-0.5s-0.1-0.6-0.1-1c0-0.2,0-0.4,0-0.6c0-0.2,0-0.4,0-0.5c0-0.5-0.2-0.8-0.4-1s-0.5-0.4-0.9-0.4l0,0
		c0.5-0.1,0.8-0.3,1.1-0.7c0.2-0.4,0.3-0.8,0.3-1.4c0-0.7-0.2-1.3-0.6-1.7c-0.4-0.4-1-0.5-1.7-0.5h-3.2V61h1.7V57.3z M182.3,53.7
		h0.8c0.8,0,1.2,0.4,1.2,1.2c0,0.5-0.1,0.8-0.3,1s-0.5,0.3-1,0.3h-0.7V53.7z"/>
	<path d="M187.5,59.9c0.2,0.4,0.5,0.7,0.9,0.9s0.9,0.3,1.5,0.3s1-0.1,1.4-0.3s0.6-0.4,0.8-0.7s0.3-0.7,0.4-1.1
		c0.1-0.4,0.1-0.9,0.1-1.3h-1.7c0,0.5,0,0.8-0.1,1.1s-0.1,0.5-0.2,0.7c-0.1,0.2-0.2,0.3-0.3,0.3c-0.1,0.1-0.3,0.1-0.4,0.1
		c-0.2,0-0.3,0-0.5-0.1s-0.3-0.2-0.3-0.4c-0.1-0.2-0.2-0.5-0.2-0.9s-0.1-0.9-0.1-1.6c0-0.6,0-1.1,0-1.5s0.1-0.8,0.2-1
		c0.1-0.3,0.2-0.4,0.3-0.6c0.1-0.1,0.3-0.2,0.5-0.2c0.4,0,0.7,0.1,0.8,0.4c0.1,0.3,0.2,0.7,0.2,1.4h1.7c0-0.3,0-0.6-0.1-1
		c0-0.4-0.2-0.7-0.3-1c-0.2-0.3-0.4-0.6-0.8-0.8c-0.4-0.2-0.8-0.3-1.5-0.3c-0.6,0-1.2,0.1-1.5,0.3c-0.4,0.2-0.7,0.5-0.9,0.9
		s-0.3,0.9-0.4,1.4s0,1.1,0,1.8s0,1.3,0.1,1.8C187.2,59,187.3,59.5,187.5,59.9z"/>
	<polygon points="198.6,59.6 195.4,59.6 195.4,57.3 198.3,57.3 198.3,55.8 195.4,55.8 195.4,53.8 198.4,53.8 198.4,52.4 193.7,52.4
		193.7,61 198.6,61 	"/>
	<path d="M123.1,336.5c0.6,0.4,0.7-0.1,0.7-0.4v-9.5v-0.1v-0.8l-6.6,6.8L123.1,336.5z"/>
	<path d="M109.3,322.9v3.7v0.1v3.7c0,0.5,0.3,1.2,1.1,1.2h1.7l11.8-12.2V317c0-0.3-0.1-0.8-0.7-0.4l-7.4,5H115h-4.7
		C109.6,321.7,109.3,322.4,109.3,322.9z"/>
	<path d="M111,335.8c0.5,0.5,1.4,0.5,1.9,0l15.4-15.9c0.5-0.5,0.5-1.4,0-1.9s-1.4-0.5-1.9,0L111,333.9
		C110.4,334.5,110.4,335.3,111,335.8z"/>
	<polygon points="176.5,607.1 176.5,605.6 171.7,605.6 171.7,614.2 176.6,614.2 176.6,612.8 173.5,612.8 173.5,610.5 176.3,610.5
		176.3,609.1 173.5,609.1 173.5,607.1 	"/>
	<polygon points="178.9,614.2 180.1,611.3 181.3,614.2 183.3,614.2 181.1,609.9 183.1,605.6 181.2,605.6 180.2,608.4 179.1,605.6
		177.1,605.6 179.1,609.9 177,614.2 	"/>
	<rect x="184" y="605.6" width="1.7" height="8.6"/>
	<polygon points="190.2,614.2 190.2,607.1 192.1,607.1 192.1,605.6 186.6,605.6 186.6,607.1 188.5,607.1 188.5,614.2 	"/>
	<path d="M37.5,610.2h0.9c0.4,0,0.6,0.1,0.8,0.3s0.2,0.5,0.3,0.8v1.6c0,0.2,0,0.3,0,0.5s0.1,0.3,0.2,0.4h1.9v-0.1
		c-0.2-0.1-0.3-0.3-0.3-0.5s-0.1-0.6-0.1-1c0-0.2,0-0.4,0-0.6c0-0.2,0-0.4,0-0.5c0-0.5-0.2-0.8-0.4-1s-0.5-0.4-0.9-0.4l0,0
		c0.5-0.1,0.8-0.3,1.1-0.7c0.2-0.4,0.3-0.8,0.3-1.4c0-0.7-0.2-1.3-0.6-1.7c-0.4-0.4-1-0.5-1.7-0.5h-3.2v8.6h1.7V610.2z M37.5,606.5
		h0.8c0.8,0,1.2,0.4,1.2,1.2c0,0.5-0.1,0.8-0.3,1s-0.5,0.3-1,0.3h-0.7V606.5z"/>
	<polygon points="47.2,606.7 47.2,605.3 42.4,605.3 42.4,613.8 47.3,613.8 47.3,612.4 44.1,612.4 44.1,610.1 47,610.1 47,608.7
		44.1,608.7 44.1,606.7 	"/>
	<polygon points="51.3,613.8 51.3,606.7 53.2,606.7 53.2,605.3 47.7,605.3 47.7,606.7 49.6,606.7 49.6,613.8 	"/>
	<path d="M53.8,605.3v6c0,0.6,0.1,1,0.2,1.4c0.2,0.4,0.4,0.6,0.6,0.8c0.3,0.2,0.5,0.3,0.9,0.4c0.3,0.1,0.7,0.1,1,0.1
		c0.4,0,0.7,0,1-0.1s0.6-0.2,0.9-0.4c0.3-0.2,0.5-0.5,0.6-0.8c0.2-0.4,0.2-0.8,0.2-1.3v-6h-1.7v6c0,0.2,0,0.4,0,0.6
		c0,0.2-0.1,0.3-0.2,0.5c-0.1,0.1-0.2,0.2-0.3,0.3s-0.3,0.1-0.5,0.1s-0.4,0-0.5-0.1s-0.2-0.2-0.3-0.3s-0.1-0.3-0.2-0.5s0-0.4,0-0.6
		v-6h-1.7V605.3z"/>
	<path d="M65.9,613.3c0-0.2-0.1-0.6-0.1-1c0-0.2,0-0.4,0-0.6c0-0.2,0-0.4,0-0.5c0-0.5-0.2-0.8-0.4-1s-0.5-0.4-0.9-0.4l0,0
		c0.5-0.1,0.8-0.3,1.1-0.7c0.2-0.4,0.3-0.8,0.3-1.4c0-0.7-0.2-1.3-0.6-1.7s-1-0.5-1.7-0.5h-3.2v8.6h1.7v-3.6H63
		c0.4,0,0.6,0.1,0.8,0.3s0.2,0.5,0.3,0.8v1.6c0,0.2,0,0.3,0,0.5s0.1,0.3,0.2,0.4h1.9V614C66,613.7,65.9,613.5,65.9,613.3z
		 M63.8,608.7c-0.2,0.2-0.5,0.3-1,0.3h-0.7v-2.5h0.8c0.8,0,1.2,0.4,1.2,1.2C64.1,608.2,64,608.5,63.8,608.7z"/>
	<polygon points="71.2,611.1 71.1,611.1 69.1,605.3 67.1,605.3 67.1,613.8 68.6,613.8 68.6,607.8 68.7,607.8 70.8,613.8 72.8,613.8
		72.8,605.3 71.2,605.3 	"/>
	<path d="M134.9,702.8c-0.1-0.2-0.3-0.3-0.5-0.5s-0.5-0.3-0.8-0.4l-1.3-0.6c-0.4-0.2-0.6-0.3-0.7-0.5c-0.1-0.2-0.2-0.4-0.2-0.7
		c0-0.1,0-0.3,0-0.4c0-0.1,0.1-0.2,0.2-0.3s0.2-0.2,0.3-0.2c0.1-0.1,0.3-0.1,0.5-0.1c0.3,0,0.6,0.1,0.7,0.3c0.1,0.2,0.2,0.5,0.2,0.9
		h1.7v-0.2c0-0.4-0.1-0.8-0.2-1c-0.1-0.3-0.3-0.5-0.6-0.7c-0.2-0.2-0.5-0.3-0.8-0.4s-0.7-0.1-1.1-0.1c-0.8,0-1.5,0.2-1.9,0.6
		s-0.7,1-0.7,1.9c0,0.4,0,0.7,0.1,0.9c0.1,0.3,0.2,0.5,0.4,0.7s0.4,0.4,0.7,0.5s0.6,0.3,1,0.4c0.3,0.1,0.5,0.2,0.7,0.3
		s0.4,0.2,0.5,0.3s0.2,0.2,0.3,0.4c0.1,0.1,0.1,0.3,0.1,0.5c0,0.4-0.1,0.6-0.3,0.8s-0.5,0.3-0.7,0.3s-0.4,0-0.6-0.1
		c-0.1-0.1-0.3-0.2-0.4-0.3s-0.1-0.2-0.2-0.4c0-0.2,0-0.3,0-0.5v-0.3h-1.7v0.3c0,0.8,0.2,1.4,0.6,1.8s1.1,0.6,2.1,0.6
		c0.9,0,1.7-0.2,2.2-0.6c0.5-0.4,0.8-1.1,0.8-2c0-0.3,0-0.5-0.1-0.7C135.1,703.2,135,703,134.9,702.8z"/>
	<path d="M137.7,706.6c0.3,0.1,0.7,0.1,1,0.1c0.4,0,0.7,0,1-0.1s0.6-0.2,0.9-0.4c0.3-0.2,0.5-0.5,0.6-0.8c0.2-0.4,0.2-0.8,0.2-1.3
		v-6h-1.7v6c0,0.2,0,0.4,0,0.6s-0.1,0.3-0.2,0.5s-0.2,0.2-0.3,0.3s-0.3,0.1-0.5,0.1s-0.4,0-0.5-0.1s-0.2-0.2-0.3-0.3
		s-0.1-0.3-0.2-0.5c0-0.2,0-0.4,0-0.6v-6H136v6c0,0.6,0.1,1,0.2,1.4c0.2,0.4,0.4,0.6,0.6,0.8C137.1,706.4,137.4,706.5,137.7,706.6z"
		/>
	<path d="M146.7,706.4c0.3-0.1,0.6-0.3,0.8-0.5s0.4-0.5,0.5-0.8s0.1-0.6,0.1-1c0-0.6-0.1-1-0.4-1.4c-0.3-0.3-0.7-0.5-1.1-0.6l0,0
		c0.4-0.1,0.8-0.3,1-0.7s0.3-0.7,0.3-1.2c0-0.4-0.1-0.8-0.2-1c-0.1-0.3-0.3-0.5-0.5-0.7s-0.5-0.3-0.8-0.4c-0.3-0.1-0.6-0.1-1-0.1
		h-2.9v8.6h2.9C146,706.6,146.4,706.5,146.7,706.4z M144.3,699.3h0.6c0.4,0,0.7,0.1,0.9,0.3s0.3,0.5,0.3,0.9s-0.1,0.7-0.3,0.9
		s-0.6,0.3-1,0.3h-0.5V699.3z M144.3,705.3v-2.6h0.7c0.2,0,0.4,0,0.5,0.1c0.2,0,0.3,0.1,0.4,0.2c0.1,0.1,0.2,0.2,0.3,0.4
		s0.1,0.4,0.1,0.6c0,0.5-0.1,0.8-0.4,1c-0.3,0.2-0.6,0.3-1,0.3H144.3z"/>
	<polygon points="154.2,698 148.8,698 148.8,699.4 150.6,699.4 150.6,706.6 152.4,706.6 152.4,699.4 154.2,699.4 	"/>
	<rect x="153.9" y="704.7" width="1.6" height="1.9"/>
	<path d="M49.5,657.6h-3.3l-3.5,13.2h2.8l0.6-2.8h3.5l0.6,2.8H53L49.5,657.6z M46.6,665.8l1.3-5.9l0,0l1.3,5.9H46.6z"/>
	<path d="M97.4,670.4c0.5-0.2,0.9-0.5,1.3-0.8s0.6-0.8,0.7-1.2s0.2-1,0.2-1.5c0-0.9-0.2-1.6-0.6-2.1s-1-0.8-1.8-0.9l0,0
		c0.7-0.2,1.2-0.5,1.5-1s0.5-1.1,0.5-1.8c0-0.6-0.1-1.2-0.3-1.6s-0.4-0.8-0.8-1c-0.3-0.3-0.7-0.4-1.2-0.6c-0.5-0.1-1-0.2-1.5-0.2
		h-4.5v13.2h4.5C96.2,670.8,96.8,670.7,97.4,670.4z M93.6,659.5h1c0.7,0,1.2,0.1,1.5,0.4s0.5,0.7,0.5,1.3s-0.2,1.1-0.5,1.3
		c-0.3,0.3-0.9,0.4-1.6,0.4h-0.8L93.6,659.5L93.6,659.5z M93.6,668.8v-4h1.1c0.3,0,0.6,0,0.8,0.1c0.2,0.1,0.5,0.2,0.6,0.3
		c0.2,0.2,0.3,0.4,0.4,0.6c0.1,0.3,0.2,0.6,0.2,1c0,0.8-0.2,1.3-0.6,1.6s-0.9,0.4-1.6,0.4L93.6,668.8L93.6,668.8z"/>
	<path d="M138.8,669.1c0.3,0.6,0.8,1.1,1.4,1.4s1.4,0.5,2.4,0.5c0.9,0,1.6-0.1,2.1-0.4c0.5-0.3,1-0.6,1.3-1.1s0.5-1,0.6-1.7
		c0.1-0.6,0.2-1.3,0.2-2h-2.7c0,0.7,0,1.3-0.1,1.7s-0.2,0.8-0.4,1c-0.1,0.2-0.3,0.4-0.5,0.5s-0.4,0.1-0.7,0.1s-0.5-0.1-0.7-0.2
		s-0.4-0.3-0.5-0.7c-0.1-0.3-0.2-0.8-0.3-1.4c-0.1-0.6-0.1-1.4-0.1-2.4c0-0.9,0-1.7,0.1-2.4c0-0.6,0.1-1.2,0.3-1.6
		c0.1-0.4,0.3-0.7,0.5-0.9s0.5-0.3,0.8-0.3c0.6,0,1,0.2,1.2,0.7c0.2,0.4,0.3,1.1,0.3,2.1h2.7c0-0.5,0-1-0.1-1.5s-0.2-1.1-0.5-1.5
		s-0.7-0.9-1.2-1.2s-1.3-0.5-2.2-0.5c-1,0-1.8,0.2-2.4,0.5c-0.6,0.3-1,0.8-1.4,1.4c-0.3,0.6-0.5,1.3-0.6,2.2s-0.1,1.8-0.1,2.8
		s0,1.9,0.1,2.8C138.3,667.8,138.5,668.5,138.8,669.1z"/>
	<path d="M186.2,670.8h4.2c0.9,0,1.6-0.1,2.2-0.4c0.6-0.3,1-0.7,1.4-1.2c0.3-0.6,0.6-1.3,0.7-2.1c0.1-0.9,0.2-1.9,0.2-3
		c0-1-0.1-1.9-0.2-2.6s-0.3-1.5-0.6-2c-0.3-0.6-0.8-1-1.3-1.3s-1.3-0.5-2.2-0.5h-4.4L186.2,670.8L186.2,670.8z M188.9,659.5h1.1
		c0.5,0,0.9,0.1,1.2,0.3s0.5,0.5,0.7,0.9s0.3,0.8,0.3,1.4c0,0.6,0.1,1.2,0.1,2c0,0.9,0,1.7-0.1,2.3s-0.2,1.1-0.3,1.5
		s-0.4,0.6-0.7,0.8s-0.7,0.2-1.1,0.2h-1.2V659.5z"/>
	<path d="M190.4,560.8c-7-2.4-14-4.9-20.9-7.3c-0.8-0.3-1.2-0.3-1.2,0.6l0,0v4.5v9.7c0,0.8,0.4,0.9,1.4,0.6
		c7.3-2.6,13.9-4.9,20.9-7.3C191.4,561.3,191.5,561.2,190.4,560.8z"/>
	<path d="M68.9,568.3L68.9,568.3v-4.5v-9.7c0-0.8-0.4-0.9-1.4-0.6c-7.3,2.6-13.9,4.9-20.9,7.3c-0.8,0.3-0.8,0.4,0.2,0.8
		c7,2.4,14,4.9,20.9,7.3C68.6,569.2,68.9,569.2,68.9,568.3z"/>
	<path d="M111.7,516.3L111.7,516.3h4.5h9.7c0.8,0,0.9-0.4,0.6-1.4c-2.6-7.3-4.9-13.9-7.3-20.9c-0.3-0.8-0.4-0.8-0.8,0.2
		c-2.4,7-4.9,14-7.3,20.9C110.8,515.9,110.7,516.3,111.7,516.3z"/>
	<path d="M125.6,606.1L125.6,606.1h-4.5h-9.7c-0.8,0-0.9,0.4-0.6,1.4c2.6,7.3,4.9,13.9,7.3,20.9c0.3,0.8,0.4,0.8,0.8-0.2
		c2.4-7,4.9-14,7.3-20.9C126.5,606.4,126.5,606.1,125.6,606.1z"/>
	<rect x="169.9" y="489.6" width="1.7" height="8.6"/>
	<polygon points="174.5,492.2 174.5,492.2 176.6,498.2 178.6,498.2 178.6,489.6 177,489.6 177,495.5 177,495.5 174.9,489.6
		172.9,489.6 172.9,498.2 174.5,498.2 	"/>
	<polygon points="184.6,491 184.6,489.6 179.8,489.6 179.8,498.2 181.5,498.2 181.5,494.5 184.4,494.5 184.4,493 181.5,493
		181.5,491 	"/>
	<path d="M189.6,489.8c-0.4-0.2-0.9-0.3-1.5-0.3s-1.2,0.1-1.5,0.3c-0.4,0.2-0.7,0.5-0.9,0.9s-0.3,0.9-0.4,1.4s-0.1,1.1-0.1,1.8
		c0,0.7,0,1.3,0.1,1.8s0.2,1,0.4,1.4s0.5,0.7,0.9,0.9c0.4,0.2,0.9,0.3,1.5,0.3s1.2-0.1,1.5-0.3s0.7-0.5,0.9-0.9s0.3-0.9,0.4-1.4
		c0.1-0.5,0.1-1.1,0.1-1.8c0-0.6,0-1.2-0.1-1.8c-0.1-0.5-0.2-1-0.4-1.4S190,490,189.6,489.8z M189.2,495.4c0,0.4-0.1,0.7-0.2,1
		s-0.2,0.4-0.4,0.6c-0.2,0.1-0.4,0.2-0.6,0.2s-0.5-0.1-0.6-0.2c-0.2-0.1-0.3-0.3-0.4-0.6s-0.1-0.6-0.2-1c0-0.4,0-0.9,0-1.5
		s0-1.1,0-1.5s0.1-0.7,0.2-1s0.2-0.4,0.4-0.6c0.2-0.1,0.4-0.2,0.6-0.2s0.5,0.1,0.6,0.2c0.2,0.1,0.3,0.3,0.4,0.6s0.1,0.6,0.2,1
		c0,0.4,0,0.9,0,1.5S189.3,495,189.2,495.4z"/>
	<polygon points="42.7,497.8 42.7,490.6 44.6,490.6 44.6,489.2 39.1,489.2 39.1,490.6 41,490.6 41,497.8 	"/>
	<path d="M49.6,489.4c-0.4-0.2-0.9-0.3-1.5-0.3s-1.2,0.1-1.5,0.3c-0.4,0.2-0.7,0.5-0.9,0.9s-0.3,0.9-0.4,1.4
		c-0.1,0.5-0.1,1.1-0.1,1.8c0,0.7,0,1.3,0.1,1.8s0.2,1,0.4,1.4s0.5,0.7,0.9,0.9s0.9,0.3,1.5,0.3s1.2-0.1,1.5-0.3
		c0.4-0.2,0.7-0.5,0.9-0.9s0.3-0.9,0.4-1.4c0.1-0.5,0.1-1.1,0.1-1.8c0-0.6,0-1.2-0.1-1.8c-0.1-0.5-0.2-1-0.4-1.4
		S50,489.6,49.6,489.4z M49.2,495c0,0.4-0.1,0.7-0.2,1s-0.2,0.4-0.4,0.6c-0.2,0.1-0.4,0.2-0.6,0.2s-0.5-0.1-0.6-0.2
		c-0.2-0.1-0.3-0.3-0.4-0.6s-0.1-0.6-0.2-1c0-0.4,0-0.9,0-1.5s0-1.1,0-1.5s0.1-0.7,0.2-1s0.2-0.4,0.4-0.6c0.2-0.1,0.4-0.2,0.6-0.2
		s0.5,0.1,0.6,0.2c0.2,0.1,0.3,0.3,0.4,0.6s0.1,0.6,0.2,1c0,0.4,0,0.9,0,1.5S49.3,494.6,49.2,495z"/>
	<path d="M57.2,490.3c-0.2-0.4-0.5-0.7-0.9-0.9c-0.4-0.2-0.9-0.3-1.5-0.3s-1.2,0.1-1.5,0.3c-0.4,0.2-0.7,0.5-0.9,0.9
		s-0.3,0.9-0.4,1.4s-0.1,1.1-0.1,1.8c0,0.7,0,1.3,0.1,1.8s0.2,1,0.4,1.4s0.5,0.7,0.9,0.9c0.4,0.2,0.9,0.3,1.5,0.3s1.2-0.1,1.5-0.3
		s0.7-0.5,0.9-0.9s0.3-0.9,0.4-1.4c0.1-0.5,0.1-1.1,0.1-1.8c0-0.6,0-1.2-0.1-1.8C57.5,491.2,57.4,490.7,57.2,490.3z M55.9,495
		c0,0.4-0.1,0.7-0.2,1s-0.2,0.4-0.4,0.6c-0.2,0.1-0.4,0.2-0.6,0.2s-0.5-0.1-0.6-0.2c-0.2-0.1-0.3-0.3-0.4-0.6s-0.1-0.6-0.2-1
		c0-0.4,0-0.9,0-1.5s0-1.1,0-1.5s0.1-0.7,0.2-1s0.2-0.4,0.4-0.6c0.2-0.1,0.4-0.2,0.6-0.2s0.5,0.1,0.6,0.2c0.2,0.1,0.3,0.3,0.4,0.6
		s0.1,0.6,0.2,1c0,0.4,0,0.9,0,1.5S55.9,494.6,55.9,495z"/>
	<polygon points="58.7,489.2 58.7,497.8 63.5,497.8 63.5,496.4 60.4,496.4 60.4,489.2 	"/>
	<path d="M66,490.6c0.1-0.1,0.2-0.2,0.3-0.2c0.1-0.1,0.3-0.1,0.5-0.1c0.3,0,0.6,0.1,0.7,0.3c0.1,0.2,0.2,0.5,0.2,0.9h1.7v-0.2
		c0-0.4-0.1-0.8-0.2-1s-0.3-0.5-0.6-0.7c-0.2-0.2-0.5-0.3-0.8-0.4s-0.7-0.1-1.1-0.1c-0.8,0-1.5,0.2-1.9,0.6c-0.5,0.4-0.7,1-0.7,1.9
		c0,0.4,0,0.7,0.1,0.9c0.1,0.3,0.2,0.5,0.4,0.7c0.2,0.2,0.4,0.4,0.7,0.5c0.3,0.2,0.6,0.3,1,0.4c0.3,0.1,0.5,0.2,0.7,0.3
		c0.2,0.1,0.4,0.2,0.5,0.3c0.1,0.1,0.2,0.2,0.3,0.4c0.1,0.1,0.1,0.3,0.1,0.5c0,0.4-0.1,0.6-0.3,0.8c-0.2,0.2-0.5,0.3-0.7,0.3
		s-0.4,0-0.6-0.1c-0.1-0.1-0.3-0.2-0.4-0.3c-0.1-0.1-0.1-0.2-0.2-0.4s0-0.3,0-0.5v-0.3H64v0.3c0,0.8,0.2,1.4,0.6,1.8
		s1.1,0.6,2.1,0.6c0.9,0,1.7-0.2,2.2-0.6s0.8-1.1,0.8-2c0-0.3,0-0.5-0.1-0.7c0-0.2-0.1-0.4-0.3-0.6c-0.1-0.2-0.3-0.3-0.5-0.5
		s-0.5-0.3-0.8-0.4l-1.3-0.6c-0.4-0.2-0.6-0.3-0.7-0.5s-0.2-0.4-0.2-0.7c0-0.1,0-0.3,0-0.4S65.9,490.7,66,490.6z"/>
	<polygon points="41,446.8 41,446.8 43,455.5 44.7,455.5 46.7,446.8 46.7,446.8 46.7,455.5 48.7,455.5 48.7,444.5 45.4,444.5
		43.9,452.3 43.8,452.3 42.3,444.5 39,444.5 39,455.5 41,455.5 	"/>
	<polygon points="56.4,446.4 56.4,444.5 50.3,444.5 50.3,455.5 56.6,455.5 56.6,453.7 52.5,453.7 52.5,450.8 56.2,450.8 56.2,448.9
		52.5,448.9 52.5,446.4 	"/>
	<polygon points="63,452.1 62.9,452.1 60.3,444.5 57.7,444.5 57.7,455.5 59.7,455.5 59.7,447.8 59.8,447.8 62.5,455.5 65,455.5
		65,444.5 63,444.5 	"/>
	<path d="M71.2,452.2c0,0.3,0,0.5-0.1,0.8c0,0.2-0.1,0.4-0.2,0.6s-0.2,0.3-0.4,0.4s-0.4,0.1-0.6,0.1c-0.3,0-0.5,0-0.6-0.1
		c-0.2-0.1-0.3-0.2-0.4-0.4c-0.1-0.2-0.2-0.4-0.2-0.6s-0.1-0.5-0.1-0.8v-7.7h-2.2v7.7c0,0.7,0.1,1.3,0.3,1.8
		c0.2,0.5,0.5,0.8,0.8,1.1c0.3,0.3,0.7,0.4,1.1,0.5s0.9,0.1,1.3,0.1c0.5,0,0.9,0,1.3-0.1s0.8-0.3,1.1-0.5c0.3-0.3,0.6-0.6,0.8-1.1
		c0.2-0.5,0.3-1,0.3-1.7v-7.7h-2.2L71.2,452.2L71.2,452.2z"/>
	<path d="M168.9,454.5L168.9,454.5v1h1.6v-5.9h-3.6v1.6h1.5v1.1c0,0.3,0,0.6-0.1,0.8s-0.2,0.4-0.3,0.5s-0.3,0.3-0.4,0.3
		c-0.2,0.1-0.3,0.1-0.4,0.1c-0.3,0-0.6-0.1-0.8-0.3c-0.2-0.2-0.4-0.5-0.5-0.9s-0.2-0.8-0.2-1.4c0-0.5-0.1-1.1-0.1-1.8
		c0-1.4,0.1-2.4,0.4-3c0.2-0.6,0.6-0.9,1.2-0.9c0.2,0,0.4,0.1,0.6,0.2c0.2,0.1,0.3,0.3,0.4,0.4s0.2,0.4,0.2,0.6s0.1,0.4,0.1,0.6h2.1
		c0-1.1-0.3-2-0.8-2.6s-1.4-0.9-2.6-0.9c-0.7,0-1.3,0.1-1.8,0.4c-0.5,0.2-0.9,0.6-1.1,1.1c-0.3,0.5-0.5,1-0.6,1.7s-0.2,1.5-0.2,2.4
		c0,1,0,1.8,0.1,2.5s0.2,1.3,0.5,1.8c0.2,0.5,0.6,0.9,1,1.1s1,0.4,1.7,0.4c0.5,0,1-0.1,1.3-0.3C168.3,455.2,168.6,454.9,168.9,454.5
		z"/>
	<path d="M171.8,444.5v7.7c0,0.7,0.1,1.3,0.3,1.8s0.5,0.8,0.8,1.1c0.3,0.3,0.7,0.4,1.1,0.5s0.9,0.1,1.3,0.1c0.5,0,0.9,0,1.3-0.1
		c0.4-0.1,0.8-0.3,1.1-0.5c0.3-0.3,0.6-0.6,0.8-1.1s0.3-1,0.3-1.7v-7.7h-2.2v7.7c0,0.3,0,0.5-0.1,0.8c0,0.2-0.1,0.4-0.2,0.6
		c-0.1,0.2-0.2,0.3-0.4,0.4s-0.4,0.1-0.6,0.1c-0.3,0-0.5,0-0.6-0.1c-0.2-0.1-0.3-0.2-0.4-0.4c-0.1-0.2-0.2-0.4-0.2-0.6
		s-0.1-0.5-0.1-0.8v-7.7L171.8,444.5L171.8,444.5z"/>
	<rect x="180.4" y="444.5" width="2.2" height="11"/>
	<path d="M191.6,449.8c0-0.8,0-1.5-0.1-2.2s-0.3-1.2-0.5-1.7s-0.6-0.8-1.1-1.1s-1.1-0.4-1.9-0.4h-3.6v11h3.5c0.7,0,1.3-0.1,1.8-0.3
		s0.9-0.6,1.2-1s0.5-1,0.6-1.8C191.5,451.6,191.6,450.8,191.6,449.8z M189.3,451.8c0,0.5-0.1,0.9-0.3,1.2c-0.1,0.3-0.3,0.5-0.6,0.7
		c-0.2,0.1-0.5,0.2-0.9,0.2h-1v-7.7h0.9c0.4,0,0.8,0.1,1,0.2c0.3,0.2,0.4,0.4,0.6,0.7c0.1,0.3,0.2,0.7,0.3,1.2c0,0.5,0.1,1,0.1,1.6
		C189.4,450.6,189.4,451.3,189.3,451.8z"/>
	<polygon points="199.2,446.3 199.2,444.5 193.1,444.5 193.1,455.5 199.4,455.5 199.4,453.7 195.3,453.7 195.3,450.7 199,450.7
		199,448.9 195.3,448.9 195.3,446.3 	"/>
	<path d="M52.5,514.4l1.4-1.3l0.8,1c0.2,0.2,0.3,0.2,0.4-0.1c0.8-1.8,1.4-3.4,2.2-5.1c0.1-0.2,0.1-0.2-0.2-0.2
		c-1.8,0.5-3.6,0.9-5.4,1.4c-0.2,0.1-0.3,0.1-0.1,0.3l0,0l0.8,0.9l-1.4,1.3L52.5,514.4z"/>
	<polygon points="50.5,508.7 52.5,508.7 52.5,504.4 59.7,504.4 59.7,513.5 56.6,513.5 56.5,513.4 56.5,515.5 61.7,515.5 61.7,502.4
		50.5,502.4 	"/>
	<rect x="53.3" y="505.7" width="5.7" height="1"/>
	<path d="M116.4,374.6c0.6,0,1-0.1,1.4-0.3c0.4-0.2,0.6-0.4,0.8-0.7c0.2-0.3,0.3-0.7,0.4-1.1s0.1-0.9,0.1-1.3h-1.7
		c0,0.5,0,0.8-0.1,1.1c-0.1,0.3-0.1,0.5-0.2,0.7s-0.2,0.3-0.3,0.3c-0.1,0.1-0.3,0.1-0.4,0.1c-0.2,0-0.3,0-0.5-0.1
		c-0.1-0.1-0.3-0.2-0.3-0.4c-0.1-0.2-0.2-0.5-0.2-0.9s-0.1-0.9-0.1-1.6c0-0.6,0-1.1,0-1.5s0.1-0.8,0.2-1c0.1-0.3,0.2-0.4,0.3-0.6
		c0.1-0.1,0.3-0.2,0.5-0.2c0.4,0,0.7,0.1,0.8,0.4s0.2,0.7,0.2,1.4h1.7c0-0.3,0-0.6-0.1-1c0-0.4-0.2-0.7-0.3-1
		c-0.2-0.3-0.4-0.6-0.8-0.8c-0.4-0.2-0.8-0.3-1.5-0.3c-0.6,0-1.2,0.1-1.5,0.3c-0.4,0.2-0.7,0.5-0.9,0.9c-0.2,0.4-0.3,0.9-0.4,1.4
		s-0.1,1.1-0.1,1.8c0,0.7,0,1.3,0.1,1.8s0.2,1,0.4,1.4c0.2,0.4,0.5,0.7,0.9,0.9S115.7,374.6,116.4,374.6z"/>
	<polygon points="123.8,369.2 121.8,369.2 121.8,365.9 120.1,365.9 120.1,374.5 121.8,374.5 121.8,370.7 123.8,370.7 123.8,374.5
		125.5,374.5 125.5,365.9 123.8,365.9 	"/>
	<polygon points="114.7,387.5 111.6,387.5 111.6,380.3 109.9,380.3 109.9,388.9 114.7,388.9 	"/>
	<rect x="115.5" y="380.3" width="1.7" height="8.6"/>
	<path d="M123.8,385.7c0-0.2-0.1-0.4-0.3-0.6c-0.1-0.2-0.3-0.3-0.5-0.5s-0.5-0.3-0.8-0.4l-1.3-0.6c-0.4-0.2-0.6-0.3-0.7-0.5
		s-0.2-0.4-0.2-0.7c0-0.1,0-0.3,0-0.4s0.1-0.2,0.2-0.3s0.2-0.2,0.3-0.2c0.1-0.1,0.3-0.1,0.5-0.1c0.3,0,0.6,0.1,0.7,0.3
		c0.1,0.2,0.2,0.5,0.2,0.9h1.7v-0.2c0-0.4-0.1-0.8-0.2-1.1c-0.1-0.3-0.3-0.5-0.6-0.7c-0.2-0.2-0.5-0.3-0.8-0.4s-0.7-0.1-1.1-0.1
		c-0.8,0-1.5,0.2-1.9,0.6s-0.7,1-0.7,1.9c0,0.4,0,0.7,0.1,0.9c0.1,0.3,0.2,0.5,0.4,0.7c0.2,0.2,0.4,0.4,0.7,0.5s0.6,0.3,1,0.4
		c0.3,0.1,0.5,0.2,0.7,0.3s0.4,0.2,0.5,0.3c0.1,0.1,0.2,0.2,0.3,0.4c0.1,0.1,0.1,0.3,0.1,0.5c0,0.4-0.1,0.6-0.3,0.8
		c-0.2,0.2-0.5,0.3-0.7,0.3s-0.4,0-0.6-0.1c-0.1-0.1-0.3-0.2-0.4-0.3s-0.1-0.2-0.2-0.4c0-0.2,0-0.3,0-0.5v-0.3h-1.7v0.3
		c0,0.8,0.2,1.4,0.6,1.8s1.1,0.6,2.1,0.6c0.9,0,1.7-0.2,2.2-0.6s0.8-1.1,0.8-2C123.9,386.2,123.9,385.9,123.8,385.7z"/>
	<polygon points="127.9,388.9 127.9,381.7 129.8,381.7 129.8,380.3 124.3,380.3 124.3,381.7 126.2,381.7 126.2,388.9 	"/>
	<path d="M105.9,438c-0.1-0.2-0.3-0.4-0.5-0.5c-0.2-0.2-0.5-0.3-0.9-0.5l-1.4-0.6c-0.4-0.2-0.7-0.3-0.8-0.5s-0.2-0.4-0.2-0.7
		c0-0.1,0-0.3,0-0.4s0.1-0.2,0.2-0.3c0.1-0.1,0.2-0.2,0.3-0.2s0.3-0.1,0.5-0.1c0.4,0,0.6,0.1,0.8,0.4s0.2,0.6,0.2,1h1.8v-0.3
		c0-0.4-0.1-0.8-0.2-1.1s-0.3-0.6-0.6-0.8c-0.3-0.2-0.6-0.3-0.9-0.4s-0.7-0.1-1.1-0.1c-0.9,0-1.6,0.2-2.1,0.7s-0.8,1.1-0.8,2
		c0,0.4,0,0.7,0.1,1s0.2,0.5,0.4,0.8c0.2,0.2,0.5,0.4,0.8,0.6s0.7,0.3,1.1,0.5c0.3,0.1,0.6,0.2,0.8,0.3s0.4,0.2,0.5,0.3
		c0.1,0.1,0.2,0.3,0.3,0.4s0.1,0.3,0.1,0.5c0,0.4-0.1,0.7-0.3,0.9c-0.2,0.2-0.5,0.3-0.8,0.3c-0.2,0-0.4,0-0.6-0.1s-0.3-0.2-0.4-0.3
		c-0.1-0.1-0.2-0.3-0.2-0.4s-0.1-0.4-0.1-0.6v-0.3H100v0.4c0,0.8,0.2,1.5,0.7,2s1.2,0.7,2.2,0.7s1.8-0.2,2.3-0.7
		c0.6-0.4,0.8-1.1,0.8-2.1c0-0.3,0-0.5-0.1-0.8C106.1,438.4,106,438.2,105.9,438z"/>
	<polygon points="112,442 113.6,434.7 113.6,434.7 113.6,442 115.3,442 115.3,432.9 112.6,432.9 111.3,439.3 111.3,439.3
		109.9,432.9 107.2,432.9 107.2,442 108.9,442 108.9,434.7 108.9,434.7 110.5,442 	"/>
	<path d="M120.7,432.9h-2.3L116,442h1.9l0.4-1.9h2.4l0.4,1.9h1.9L120.7,432.9z M118.7,438.6l0.9-4.1l0,0l0.9,4.1H118.7z"/>
	<path d="M130,442c-0.2-0.1-0.3-0.3-0.3-0.5c0-0.3-0.1-0.6-0.1-1.1c0-0.2,0-0.5,0-0.7s0-0.4,0-0.6c-0.1-0.5-0.2-0.9-0.4-1.1
		s-0.6-0.4-1-0.5l0,0c0.5-0.1,0.9-0.4,1.2-0.8c0.2-0.4,0.4-0.9,0.4-1.5c0-0.8-0.2-1.4-0.6-1.8s-1-0.6-1.8-0.6H124v9.2h1.9v-3.9h1
		c0.4,0,0.7,0.1,0.8,0.3c0.2,0.2,0.3,0.5,0.3,0.8l0.1,1.8c0,0.2,0,0.4,0.1,0.5c0,0.2,0.1,0.3,0.2,0.4L130,442L130,442z M127.5,436.5
		c-0.2,0.2-0.6,0.3-1,0.3h-0.8v-2.6h0.9c0.9,0,1.3,0.4,1.3,1.3C127.8,436,127.7,436.3,127.5,436.5z"/>
	<polygon points="134.1,442 134.1,434.4 136.1,434.4 136.1,432.9 130.2,432.9 130.2,434.4 132.3,434.4 132.3,442 	"/>
	<polygon points="111.5,453.4 113.6,453.4 113.6,457.5 115.5,457.5 115.5,448.3 113.6,448.3 113.6,451.8 111.5,451.8 111.5,448.3
		109.6,448.3 109.6,457.5 111.5,457.5 	"/>
	<path d="M116.7,448.3v6.4c0,0.6,0.1,1.1,0.2,1.5s0.4,0.7,0.7,0.9c0.3,0.2,0.6,0.3,0.9,0.4c0.4,0.1,0.7,0.1,1.1,0.1s0.7,0,1.1-0.1
		s0.7-0.2,0.9-0.5c0.3-0.2,0.5-0.5,0.7-0.9s0.2-0.9,0.2-1.4v-6.4h-1.9v6.4c0,0.2,0,0.4,0,0.6s-0.1,0.4-0.2,0.5s-0.2,0.3-0.3,0.3
		c-0.1,0.1-0.3,0.1-0.5,0.1s-0.4,0-0.5-0.1s-0.3-0.2-0.3-0.3c-0.1-0.1-0.1-0.3-0.2-0.5c0-0.2,0-0.4,0-0.6v-6.4H116.7z"/>
	<path d="M128.2,457.2c0.4-0.1,0.7-0.3,0.9-0.6c0.2-0.2,0.4-0.5,0.5-0.9c0.1-0.3,0.1-0.7,0.1-1c0-0.6-0.1-1.1-0.5-1.5
		c-0.3-0.4-0.7-0.6-1.2-0.7l0,0c0.5-0.1,0.8-0.4,1-0.7c0.2-0.4,0.3-0.8,0.3-1.3c0-0.4-0.1-0.8-0.2-1.1c-0.1-0.3-0.3-0.5-0.5-0.7
		s-0.5-0.3-0.8-0.4s-0.7-0.1-1-0.1h-3.1v9.2h3.1C127.4,457.5,127.8,457.4,128.2,457.2z M125.5,449.6h0.7c0.5,0,0.8,0.1,1,0.3
		c0.2,0.2,0.3,0.5,0.3,0.9s-0.1,0.7-0.4,0.9c-0.2,0.2-0.6,0.3-1.1,0.3h-0.5V449.6z M125.5,456.1v-2.8h0.8c0.2,0,0.4,0,0.6,0.1
		c0.2,0,0.3,0.1,0.4,0.2s0.2,0.2,0.3,0.4s0.1,0.4,0.1,0.7c0,0.5-0.1,0.9-0.4,1.1s-0.6,0.3-1.1,0.3L125.5,456.1L125.5,456.1z"/>
	<path d="M168.2,246.2c-0.3-0.1-0.7-0.2-1.1-0.2h-3v8.6h1.7v-3.4h0.9c0.4,0,0.8-0.1,1.1-0.2c0.3-0.1,0.6-0.3,0.9-0.5
		c0.2-0.2,0.4-0.5,0.6-0.8s0.2-0.7,0.2-1.2c0-0.3,0-0.6-0.1-0.9s-0.2-0.6-0.4-0.8C168.7,246.5,168.5,246.3,168.2,246.2z
		 M167.4,249.5c-0.2,0.2-0.5,0.3-0.8,0.3h-0.8v-2.6h0.7c0.4,0,0.7,0.1,0.9,0.3s0.3,0.6,0.3,1C167.7,249,167.6,249.3,167.4,249.5z"/>
	<path d="M170.3,245.9v8.6h1.7v-3.6h0.9c0.4,0,0.6,0.1,0.8,0.3s0.2,0.5,0.3,0.8v1.6c0,0.2,0,0.3,0,0.5s0.1,0.3,0.2,0.4h1.9v-0.1
		c-0.2-0.1-0.3-0.3-0.3-0.5s-0.1-0.6-0.1-1c0-0.2,0-0.4,0-0.6c0-0.2,0-0.4,0-0.5c0-0.5-0.2-0.8-0.4-1s-0.5-0.4-0.9-0.4l0,0
		c0.5-0.1,0.8-0.3,1.1-0.7c0.2-0.4,0.3-0.8,0.3-1.4c0-0.7-0.2-1.3-0.6-1.7c-0.4-0.4-1-0.5-1.7-0.5h-3.2V245.9z M174,248.4
		c0,0.5-0.1,0.8-0.3,1s-0.5,0.3-1,0.3H172v-2.5h0.8C173.6,247.2,174,247.6,174,248.4z"/>
	<polygon points="181.7,247.4 181.7,245.9 176.9,245.9 176.9,254.5 181.9,254.5 181.9,253.1 178.7,253.1 178.7,250.8 181.6,250.8
		181.6,249.4 178.7,249.4 178.7,247.4 	"/>
	<rect x="182.6" y="250.3" width="3.4" height="1.4"/>
	<path d="M192.1,253.6c0.2-0.3,0.3-0.7,0.4-1.1c0.1-0.4,0.1-0.9,0.1-1.3h-1.7c0,0.5,0,0.8-0.1,1.1s-0.1,0.5-0.2,0.7
		c-0.1,0.2-0.2,0.3-0.3,0.3c-0.1,0.1-0.3,0.1-0.4,0.1c-0.2,0-0.3,0-0.5-0.1s-0.3-0.2-0.3-0.4c-0.1-0.2-0.2-0.5-0.2-0.9
		s-0.1-0.9-0.1-1.6c0-0.6,0-1.1,0-1.5s0.1-0.8,0.2-1c0.1-0.3,0.2-0.4,0.3-0.6c0.1-0.1,0.3-0.2,0.5-0.2c0.4,0,0.7,0.1,0.8,0.4
		c0.1,0.3,0.2,0.7,0.2,1.4h1.7c0-0.3,0-0.6-0.1-1c0-0.4-0.2-0.7-0.3-1s-0.4-0.6-0.8-0.8c-0.4-0.2-0.8-0.3-1.5-0.3
		c-0.6,0-1.2,0.1-1.5,0.3c-0.4,0.2-0.7,0.5-0.9,0.9s-0.3,0.9-0.4,1.4s-0.1,1.1-0.1,1.8s0,1.3,0.1,1.8s0.2,1,0.4,1.4s0.5,0.7,0.9,0.9
		s0.9,0.3,1.5,0.3s1-0.1,1.4-0.3C191.6,254.2,191.9,254,192.1,253.6z"/>
	<polygon points="195.3,250.7 197.3,250.7 197.3,254.5 199.1,254.5 199.1,245.9 197.3,245.9 197.3,249.2 195.3,249.2 195.3,245.9
		193.6,245.9 193.6,254.5 195.3,254.5 	"/>
	<polygon points="47.4,247 49.3,247 49.3,254.1 51,254.1 51,247 52.9,247 52.9,245.5 47.4,245.5 	"/>
	<polygon points="55,254.1 56.2,251.2 57.5,254.1 59.4,254.1 57.3,249.8 59.3,245.5 57.4,245.5 56.3,248.3 55.2,245.5 53.3,245.5
		55.3,249.8 53.1,254.1 	"/>
	<polygon points="63.2,254.1 63.2,247 65.1,247 65.1,245.5 59.6,245.5 59.6,247 61.5,247 61.5,254.1 	"/>
	<path d="M47.3,267.6c0,2.7,5.4,3.1,8.6,3.1c0.1,0,0.1,0,0.2,0c2.1,0,6.6-0.2,8.2-1.8c0.4-0.4,0.6-0.8,0.6-1.3V261
		c0-0.5-0.2-0.9-0.6-1.3c-1.4-1.4-5.3-1.7-8.4-1.6c-5.8,0-8.6,1-8.6,2.9C47.3,261,47.3,267.6,47.3,267.6z M48.3,261
		c0-0.9,2-1.9,7.6-1.9c0.1,0,0.2,0,0.3,0c3.8,0,6.5,0.5,7.4,1.3c0.2,0.2,0.3,0.4,0.3,0.6v6.6c0,0.2-0.1,0.4-0.3,0.6
		c-0.9,0.9-3.8,1.5-7.6,1.5c-4.5,0-7.6-0.9-7.6-2.1V261H48.3z"/>
	<path d="M50.4,262.1h11.5c0.3,0,0.5-0.2,0.5-0.5s-0.2-0.5-0.5-0.5H50.4c-0.3,0-0.5,0.2-0.5,0.5S50.1,262.1,50.4,262.1z"/>
	<path d="M50.4,264.8h11.5c0.3,0,0.5-0.2,0.5-0.5s-0.2-0.5-0.5-0.5H50.4c-0.3,0-0.5,0.2-0.5,0.5C49.8,264.6,50.1,264.8,50.4,264.8z"
		/>
	<path d="M50.4,267.5h11.5c0.3,0,0.5-0.2,0.5-0.5s-0.2-0.5-0.5-0.5H50.4c-0.3,0-0.5,0.2-0.5,0.5S50.1,267.5,50.4,267.5z"/>
	<path d="M172.8,264c3,1.5,5.9,3,8.9,4.4c0.3,0.2,0.5,0.2,0.5-0.4v-3h9.2v-2.3h-9.3c0-1,0.1-2.4,0.1-3.4c0-0.5-0.2-0.6-0.6-0.4
		c-3.1,1.6-5.9,3-8.9,4.4C172.4,263.7,172.4,263.8,172.8,264z"/>
	<polygon points="33.6,703.3 35.4,703.3 35.4,702.3 33.6,702.3 33.6,700.8 35.5,700.8 35.5,699.8 32.5,699.8 32.5,705.9 35.6,705.9
		35.6,704.9 33.6,704.9 	"/>
	<rect x="36.1" y="702.9" width="2.1" height="1"/>
	<polygon points="43.7,705.9 43.7,699.8 42.1,699.8 41.3,704.1 41.3,704.1 40.5,699.8 38.9,699.8 38.9,705.9 39.9,705.9 39.9,701
		39.9,701 40.9,705.9 41.7,705.9 42.7,701 42.7,701 42.7,705.9 	"/>
	<path d="M44.1,705.9h1.1l0.2-1.3h1.4l0.2,1.3h1.1l-1.4-6.1h-1.3L44.1,705.9z M46.1,700.9L46.1,700.9l0.5,2.7h-1L46.1,700.9z"/>
	<polygon points="51.1,704 49.8,699.8 48.6,699.8 48.6,705.9 49.6,705.9 49.6,701.6 49.6,701.6 50.9,705.9 52.2,705.9 52.2,699.8
		51.2,699.8 51.2,704 	"/>
	<path d="M53.4,705.7c0.2,0.1,0.3,0.2,0.5,0.3c0.2,0,0.4,0.1,0.6,0.1s0.4,0,0.6-0.1c0.2-0.1,0.4-0.2,0.5-0.3
		c0.2-0.1,0.3-0.3,0.4-0.6c0.1-0.3,0.1-0.6,0.1-1v-4.2H55v4.2c0,0.2,0,0.3,0,0.4s0,0.2-0.1,0.3c0,0.1-0.1,0.2-0.2,0.2
		s-0.2,0.1-0.3,0.1s-0.2,0-0.3-0.1s-0.1-0.1-0.2-0.2c0-0.1-0.1-0.2-0.1-0.3s0-0.3,0-0.4v-4.2h-1.1v4.2c0,0.4,0,0.7,0.1,1
		S53.2,705.5,53.4,705.7z"/>
	<path d="M58,699.8l-1.4,6.1h1.1l0.2-1.3h1.4l0.2,1.3h1.1l-1.4-6.1H58z M58.1,703.6l0.5-2.7l0,0l0.5,2.7H58.1z"/>
	<polygon points="62.2,699.8 61.1,699.8 61.1,705.9 64.1,705.9 64.1,704.9 62.2,704.9 	"/>
	<path d="M132.1,558.8v-3.6h-1.2v1.8c0,0.8,0,2.8-0.4,3.2s-1,0.4-1.5,0.4h-0.8v-2.8c0-1.4-1.2-2.6-2.6-2.6h-12.1
		c-1.4,0-2.6,1.2-2.6,2.6v6.8c0,1.4,1.2,2.6,2.6,2.6h12.1c1.4,0,2.6-1.2,2.6-2.6v-2.8h1.4C131.4,561.8,132.1,560.7,132.1,558.8z
		 M127.1,560.6h-3.7v-1.5c0-0.3-0.1-0.3-0.3-0.2c-1.5,0.8-3,1.5-4.5,2.3c-0.2,0.1-0.2,0.2,0,0.2c1.5,0.8,2.9,1.5,4.5,2.3
		c0.2,0.1,0.3,0.1,0.3-0.2c0-0.5-0.1-1.2-0.1-1.7h3.8v2.8c0,0.9-0.7,1.5-1.5,1.5h-12.1c-0.8,0-1.5-0.7-1.5-1.5v-6.8
		c0-0.9,0.7-1.5,1.5-1.5h12.1c0.9,0,1.5,0.7,1.5,1.5C127.1,557.8,127.1,560.6,127.1,560.6z"/>
	<polygon points="107.4,303.7 107.4,303.7 108.9,310.5 110.3,310.5 111.8,303.7 111.8,303.7 111.8,310.5 113.4,310.5 113.4,301.9
		110.9,301.9 109.6,308 109.6,308 108.4,301.9 105.8,301.9 105.8,310.5 107.4,310.5 	"/>
	<path d="M114.5,301.9v6c0,0.6,0.1,1,0.2,1.4c0.2,0.4,0.4,0.6,0.6,0.8c0.3,0.2,0.5,0.3,0.9,0.4c0.3,0.1,0.7,0.1,1,0.1
		c0.4,0,0.7,0,1-0.1s0.6-0.2,0.9-0.4c0.3-0.2,0.5-0.5,0.6-0.8c0.2-0.4,0.2-0.8,0.2-1.3v-6h-1.7v6c0,0.2,0,0.4,0,0.6
		s-0.1,0.3-0.2,0.5c-0.1,0.1-0.2,0.2-0.3,0.3s-0.3,0.1-0.5,0.1s-0.4,0-0.5-0.1s-0.2-0.2-0.3-0.3s-0.1-0.3-0.2-0.5s0-0.4,0-0.6v-6
		h-1.7V301.9z"/>
	<polygon points="120.6,303.3 122.5,303.3 122.5,310.5 124.2,310.5 124.2,303.3 126.1,303.3 126.1,301.9 120.6,301.9 	"/>
	<polygon points="131.8,309.1 128.6,309.1 128.6,306.8 131.5,306.8 131.5,305.4 128.6,305.4 128.6,303.3 131.6,303.3 131.6,301.9
		126.9,301.9 126.9,310.5 131.8,310.5 	"/>
	<path d="M92.4,703.1L92.4,703.1c0.4-0.1,0.7-0.3,1-0.6c0.2-0.3,0.3-0.7,0.3-1.3c0-0.8-0.2-1.3-0.6-1.7s-1-0.5-1.8-0.5
		s-1.4,0.2-1.9,0.6c-0.4,0.4-0.6,1.1-0.6,1.9h1.6c0-0.2,0-0.4,0-0.6c0-0.2,0.1-0.3,0.1-0.4c0.1-0.1,0.2-0.2,0.3-0.3
		c0.1-0.1,0.3-0.1,0.5-0.1c0.3,0,0.5,0.1,0.6,0.3s0.2,0.5,0.2,0.9c0,0.2,0,0.3-0.1,0.5c0,0.2-0.1,0.3-0.2,0.4
		c-0.1,0.1-0.2,0.2-0.3,0.3c-0.1,0.1-0.3,0.1-0.5,0.1h-0.6v1.1H91c0.2,0,0.4,0,0.6,0.1c0.1,0.1,0.3,0.2,0.3,0.3
		c0.1,0.1,0.1,0.3,0.2,0.5c0,0.2,0,0.4,0,0.6c0,0.2,0,0.4,0,0.5c0,0.2-0.1,0.3-0.1,0.4c-0.1,0.1-0.2,0.2-0.3,0.3
		c-0.1,0.1-0.3,0.1-0.5,0.1c-0.4,0-0.6-0.1-0.8-0.4c-0.1-0.3-0.2-0.6-0.2-1.1h-1.7l0,0c0,0.8,0.2,1.5,0.6,1.9c0.4,0.5,1,0.7,1.9,0.7
		c0.6,0,1.1-0.1,1.4-0.2c0.4-0.2,0.7-0.4,0.9-0.6c0.2-0.3,0.4-0.5,0.4-0.8s0.1-0.6,0.1-0.9c0-0.5-0.1-1-0.3-1.3
		C93.4,703.4,93,703.2,92.4,703.1z"/>
	<path d="M102.9,695.7L102.9,695.7l-0.2-0.2l-0.1-0.1c0,0-0.1,0-0.1-0.1c0,0-0.1,0-0.1-0.1c-0.1,0-0.1,0-0.2-0.1h-0.1
		c-0.1,0-0.2,0-0.3,0H88.5c-0.1,0-0.2,0-0.3,0h-0.1c-0.1,0-0.1,0-0.2,0.1c0,0-0.1,0-0.1,0.1c0,0-0.1,0-0.1,0.1c0,0-0.1,0-0.1,0.1
		l-0.1,0.1l-0.1,0.1c0,0,0,0-0.1,0.1c-0.2,0.3-0.4,0.6-0.4,1v10.8c0,0.7,5.1,2.3,7.2,3c0.6,0.2,1.3,0.2,1.9,0c2.2-0.7,7.2-2.4,7.2-3
		v-10.8C103.3,696.3,103.2,696,102.9,695.7C103,695.7,102.9,695.7,102.9,695.7z M94.5,709.6c-4.1-1.3-5.8-2.1-6.4-2.4V697
		c1.6,0.8,4.6,1.7,6.1,2.2c0.1,0,0.2,0,0.3,0.1V709.6z M101.9,705c-0.1,0.5-0.2,1-0.5,1.3c-0.2,0.3-0.5,0.6-0.9,0.8
		s-0.8,0.3-1.4,0.3h-2.6v-8.1h2.7c0.6,0,1,0.1,1.4,0.3c0.3,0.2,0.6,0.5,0.8,0.8c0.2,0.3,0.3,0.8,0.4,1.2c0.1,0.5,0.1,1,0.1,1.6
		C102,703.8,102,704.4,101.9,705z"/>
	<path d="M100.2,701c-0.1-0.2-0.2-0.4-0.4-0.5c-0.2-0.1-0.4-0.2-0.7-0.2h-0.7v5.7H99c0.3,0,0.5,0,0.7-0.1s0.3-0.3,0.4-0.5
		s0.2-0.5,0.2-0.9s0.1-0.8,0.1-1.4c0-0.5,0-0.9,0-1.2C100.3,701.6,100.3,701.3,100.2,701z"/>
	<path d="M58.6,131v-20.3h-3c-0.2,1.1-0.7,2-1.5,2.5s-1.9,0.8-3.3,0.8h-0.4v2.7h4.1V131H58.6z"/>
	<path d="M120.3,118.4c-0.2,0.3-0.4,0.7-0.6,1c-0.3,0.3-0.6,0.7-1.1,1.1l-1.7,1.6c-0.7,0.7-1.4,1.4-2,2.1s-1,1.4-1.4,2.1
		s-0.7,1.5-0.8,2.2c-0.2,0.8-0.3,1.6-0.3,2.5h12.5v-3.2h-7.7c0.1-0.4,0.3-0.8,0.7-1.4s0.8-1.1,1.4-1.6l2.3-2.1
		c0.6-0.5,1.1-1,1.5-1.5s0.7-1,1-1.5c0.2-0.5,0.4-1.1,0.5-1.6c0.1-0.6,0.2-1.2,0.2-1.8c0-1.8-0.5-3.2-1.5-4.1c-1-1-2.5-1.4-4.6-1.4
		c-2.2,0-3.8,0.5-4.8,1.5s-1.5,2.5-1.5,4.4v0.8h4c0-0.5,0-1,0.1-1.5c0-0.5,0.2-0.9,0.3-1.3c0.2-0.4,0.4-0.7,0.7-0.9
		c0.3-0.2,0.7-0.3,1.2-0.3c1.3,0,2,0.8,2,2.5c0,0.5,0,1-0.1,1.4S120.5,118,120.3,118.4z"/>
	<path d="M183,127.7c-0.2,0.3-0.4,0.5-0.7,0.7s-0.7,0.3-1.2,0.3c-0.9,0-1.5-0.3-1.8-0.9c-0.3-0.6-0.5-1.5-0.5-2.7h-4v0.1
		c0,2,0.5,3.5,1.5,4.6s2.5,1.6,4.4,1.6c1.4,0,2.6-0.2,3.4-0.5s1.6-0.8,2.1-1.4c0.5-0.6,0.8-1.3,1-2c0.2-0.7,0.3-1.4,0.3-2.1
		c0-1.3-0.3-2.4-0.8-3.2c-0.5-0.9-1.5-1.4-2.8-1.6v-0.1c1-0.2,1.7-0.7,2.3-1.5s0.8-1.8,0.8-3c0-1.8-0.5-3.1-1.5-4
		c-1-0.8-2.5-1.3-4.3-1.3c-2,0-3.4,0.5-4.5,1.5c-1,1-1.5,2.5-1.5,4.5h3.8c0-0.5,0-0.9,0.1-1.3c0-0.4,0.1-0.8,0.3-1
		c0.2-0.3,0.4-0.5,0.6-0.7c0.3-0.2,0.6-0.2,1.1-0.2c0.7,0,1.2,0.2,1.5,0.6s0.5,1.1,0.5,2.1c0,0.4,0,0.8-0.1,1.2
		c-0.1,0.4-0.2,0.7-0.4,1s-0.4,0.5-0.7,0.7s-0.7,0.3-1.1,0.3h-1.4v2.7h1.4c0.6,0,1,0.1,1.4,0.3c0.3,0.2,0.6,0.5,0.8,0.8
		s0.3,0.7,0.4,1.1s0.1,0.8,0.1,1.3c0,0.4,0,0.9-0.1,1.3S183.1,127.4,183,127.7z"/>
	<path d="M49.6,172.4h7.2v4.2h3.8v-4.2h2v-3.2h-2v-12.9h-4.3L49.6,169V172.4z M56.8,161.5L56.8,161.5l0.1,7.7h-4L56.8,161.5z"/>
	<path d="M113.5,175.1c0.4,0.6,1,1,1.8,1.4c0.8,0.3,1.8,0.5,3.1,0.5c1.3,0,2.4-0.2,3.2-0.5c0.8-0.3,1.5-0.8,2-1.5s0.8-1.5,1-2.4
		s0.3-1.9,0.3-3.1c0-0.8-0.1-1.6-0.2-2.4s-0.4-1.5-0.8-2.1s-0.9-1.1-1.5-1.5s-1.5-0.6-2.4-0.6s-1.6,0.1-2.2,0.4
		c-0.6,0.2-1.1,0.6-1.5,1.2h-0.1l0.4-4.6h7.5v-3.2h-10.6l-0.7,11.1h3.7c0.1-0.6,0.3-1,0.6-1.4c0.3-0.3,0.8-0.5,1.4-0.5
		c0.5,0,0.8,0.1,1.1,0.2c0.3,0.1,0.6,0.4,0.7,0.7c0.2,0.3,0.3,0.8,0.4,1.3c0.1,0.6,0.1,1.3,0.1,2.1c0,1.3-0.2,2.3-0.6,3s-1,1-1.9,1
		c-0.4,0-0.8-0.1-1.1-0.3c-0.3-0.2-0.5-0.5-0.6-0.8s-0.2-0.7-0.3-1.1s-0.1-0.7-0.1-1.1h-4v0.5c0,0.6,0.1,1.2,0.2,1.9
		S113,174.5,113.5,175.1z"/>
	<path d="M174.7,167.5c0,1.2,0.1,2.4,0.2,3.6c0.1,1.1,0.4,2.2,0.9,3c0.5,0.9,1.1,1.6,1.9,2.1c0.8,0.5,2,0.7,3.4,0.7
		c2.3,0,4-0.6,5-1.8s1.6-3,1.6-5.4c0-0.9-0.1-1.8-0.3-2.5c-0.2-0.8-0.5-1.4-0.9-2s-0.9-1-1.5-1.3s-1.4-0.5-2.3-0.5
		c-0.9,0-1.7,0.2-2.3,0.5s-1.1,0.7-1.5,1.3h-0.1v-1c0-0.7,0-1.4,0.1-2.1s0.2-1.2,0.4-1.6c0.2-0.5,0.4-0.8,0.8-1.1
		c0.3-0.3,0.8-0.4,1.3-0.4c0.7,0,1.2,0.2,1.5,0.6c0.3,0.4,0.4,1,0.4,1.8h4c0-1-0.2-1.8-0.5-2.5s-0.7-1.2-1.2-1.6
		c-0.5-0.4-1.1-0.7-1.8-0.9s-1.4-0.3-2.1-0.3c-1.7,0-3,0.3-3.9,0.9s-1.6,1.5-2,2.5s-0.7,2.2-0.8,3.6
		C174.7,164.7,174.7,166.1,174.7,167.5z M179.5,167.4c0.3-0.6,0.9-0.9,1.8-0.9c0.8,0,1.4,0.3,1.7,0.9s0.5,1.6,0.5,3
		c0,0.6,0,1.1-0.1,1.6c0,0.5-0.1,0.9-0.3,1.3s-0.4,0.6-0.7,0.8s-0.7,0.3-1.2,0.3s-0.9-0.1-1.2-0.3s-0.5-0.5-0.7-0.8
		c-0.2-0.4-0.3-0.8-0.3-1.3c-0.1-0.5-0.1-1-0.1-1.6C179,168.9,179.2,168,179.5,167.4z"/>
	<path d="M62.4,205.4v-3.2H49.8v3.6h8.6c-1,1.4-1.9,2.7-2.6,4.2s-1.3,2.8-1.9,4.2c-0.5,1.4-0.9,2.8-1.2,4.1
		c-0.3,1.4-0.5,2.6-0.7,3.9h4.3c0.2-1.4,0.4-2.9,0.7-4.4s0.7-2.9,1.2-4.4c0.5-1.4,1.1-2.8,1.7-4.2C60.8,207.9,61.5,206.6,62.4,205.4
		z"/>
	<path d="M113.4,220.4c0.5,0.6,1.1,1.1,2,1.5s2,0.6,3.4,0.6s2.6-0.2,3.4-0.6s1.5-0.9,2-1.5s0.8-1.3,0.9-2s0.2-1.4,0.2-2
		c0-1.3-0.3-2.4-0.9-3.3c-0.6-0.9-1.4-1.5-2.6-1.7v-0.1c0.5-0.1,1-0.3,1.4-0.6s0.7-0.6,0.9-1c0.2-0.4,0.4-0.7,0.5-1.1
		s0.2-0.8,0.2-1.1c0-2-0.5-3.4-1.6-4.3c-1.1-0.9-2.5-1.3-4.4-1.3s-3.3,0.4-4.4,1.3c-1.1,0.9-1.6,2.3-1.6,4.3c0,0.4,0,0.7,0.1,1.1
		s0.3,0.8,0.5,1.1c0.2,0.4,0.5,0.7,0.9,1s0.8,0.5,1.4,0.6v0.1c-1.1,0.2-2,0.8-2.6,1.7s-0.9,2-0.9,3.3c0,0.6,0.1,1.2,0.2,2
		C112.6,219.1,112.9,219.8,113.4,220.4z M118.8,204.6c1.3,0,2,0.9,2,2.8c0,1-0.2,1.7-0.5,2.2c-0.4,0.5-0.9,0.7-1.5,0.7
		s-1.1-0.2-1.5-0.7s-0.5-1.2-0.5-2.2C116.8,205.5,117.4,204.6,118.8,204.6z M116.5,215c0.1-0.4,0.2-0.8,0.4-1.1
		c0.2-0.3,0.4-0.6,0.7-0.7c0.3-0.2,0.7-0.3,1.2-0.3s0.8,0.1,1.1,0.3c0.3,0.2,0.6,0.4,0.7,0.7c0.2,0.3,0.3,0.7,0.4,1.1
		c0.1,0.4,0.1,0.9,0.1,1.4s0,0.9-0.1,1.4c-0.1,0.4-0.2,0.8-0.4,1.1c-0.2,0.3-0.4,0.6-0.7,0.7s-0.7,0.3-1.1,0.3s-0.8-0.1-1.2-0.3
		s-0.6-0.4-0.7-0.7c-0.2-0.3-0.3-0.7-0.4-1.1s-0.1-0.9-0.1-1.4S116.5,215.5,116.5,215z"/>
	<path d="M174.9,211.7c0.2,0.8,0.5,1.4,0.9,2s0.9,1,1.5,1.3s1.4,0.5,2.3,0.5c0.9,0,1.7-0.2,2.3-0.5s1.1-0.7,1.5-1.2h0.1v1
		c0,0.7,0,1.4-0.1,2.1s-0.2,1.2-0.4,1.6c-0.2,0.5-0.4,0.8-0.8,1.1c-0.3,0.3-0.8,0.4-1.3,0.4c-0.7,0-1.2-0.2-1.5-0.6
		c-0.3-0.4-0.4-1-0.4-1.8h-4c0,1,0.2,1.8,0.5,2.5s0.7,1.2,1.2,1.6c0.5,0.4,1.1,0.7,1.8,0.8s1.4,0.2,2.1,0.2c1.7,0,3-0.3,3.9-0.9
		s1.6-1.4,2-2.5c0.4-1,0.7-2.2,0.8-3.6c0.1-1.4,0.1-2.8,0.1-4.2c0-1.2-0.1-2.4-0.2-3.6c-0.1-1.1-0.4-2.2-0.9-3s-1.1-1.6-1.9-2.1
		c-0.8-0.5-2-0.8-3.4-0.8c-2.3,0-4,0.6-5,1.9c-1,1.2-1.6,3-1.6,5.4C174.7,210.1,174.8,210.9,174.9,211.7z M178.9,207
		c0-0.5,0.1-0.9,0.3-1.3c0.2-0.4,0.4-0.6,0.7-0.8s0.7-0.3,1.2-0.3s0.9,0.1,1.2,0.3s0.5,0.5,0.7,0.8c0.2,0.4,0.3,0.8,0.3,1.3
		c0.1,0.5,0.1,1,0.1,1.6c0,1.4-0.2,2.4-0.5,3s-0.9,0.9-1.8,0.9c-0.8,0-1.4-0.3-1.7-0.9c-0.3-0.6-0.5-1.6-0.5-3
		C178.8,208,178.8,207.5,178.9,207z"/>
	<path d="M113.6,266.7c0.5,0.8,1.1,1.3,2,1.7c0.8,0.3,1.8,0.5,3.1,0.5c1.5,0,2.7-0.3,3.5-0.9c0.9-0.6,1.5-1.4,1.9-2.4
		s0.7-2.2,0.8-3.5c0.1-1.3,0.1-2.7,0.1-4.1c0-1.8-0.1-3.3-0.3-4.6c-0.2-1.3-0.5-2.3-1-3.1s-1.1-1.4-2-1.7s-1.8-0.5-3.1-0.5
		c-1.5,0-2.7,0.3-3.5,0.9s-1.5,1.4-1.9,2.4s-0.7,2.2-0.8,3.5c-0.1,1.3-0.1,2.7-0.1,4.1c0,1.8,0.1,3.3,0.3,4.6
		C112.8,264.9,113.1,265.9,113.6,266.7z M116.4,257.7c0-1.3,0-2.4,0.1-3.3s0.2-1.6,0.3-2.1c0.2-0.5,0.4-0.9,0.7-1.1s0.7-0.3,1.1-0.3
		s0.8,0.1,1.1,0.3s0.5,0.5,0.7,1s0.3,1.1,0.4,1.9c0.1,0.8,0.1,1.9,0.1,3.1v2.2c0,1.3,0,2.4-0.1,3.3s-0.2,1.6-0.3,2.1
		s-0.4,0.9-0.7,1.1c-0.3,0.2-0.7,0.3-1.1,0.3s-0.8-0.1-1.1-0.3c-0.3-0.2-0.5-0.5-0.7-1s-0.3-1.1-0.4-1.9s-0.1-1.9-0.1-3.1V257.7z"/>
</g>
<path d="M67.8,806.5c0,0-1.2-0.7-1.9-1c0,0-2.3-1.1-2.7-1.5c0,0-0.9-0.8-0.4-1.8c0,0,0.2-0.6,1.1-0.6c0,0,1.2,0.1,1.2,1.1v1.4h4.4
	l0-2.1c0,0,0.3-3.4-5.1-3.5c0,0-0.4,0-1,0c0,0-3.3,0.2-4.5,2c0,0,0,0,0,0c0,0-0.5,0.5-0.5,2.3v1.3c0,0-0.1,1.5,0.7,2.5
	c0,0,0.4,0.6,1.5,1.3c0,0,2.2,1.2,3.5,1.8c0,0,1.3,0.8,1.1,1.9c0,0-0.1,1.2-1.4,1.2c0,0-1.2-0.1-1.2-1.2v-1.4H58v2.1
	c0,0-0.1,3.9,5.8,3.9c0,0,5.7,0.1,6-4v-1.7C69.8,810.4,70,807.8,67.8,806.5L67.8,806.5z M139.2,811.3c0,0,0.1,1.4-1.2,1.4
	c0,0-1.3,0.1-1.3-1.3l0-12.5h-4.7v12.4c0,0-0.5,4.7,6.1,4.7c0,0,5.8,0.1,5.8-4.5v-12.6h-4.6V811.3z M153.9,805.4l4.6,10.1h5.2v-16.6
	h-4.4l0.3,10.1h-0.2l-4.4-10.1h-5.3v16.6h4.3l-0.3-10.1H153.9z M174.1,806.3v2.4h1.2v2.6c0,1.3-1.1,1.3-1.1,1.3
	c-1.3,0-1.3-1.2-1.3-1.2v-9.1c0-0.9,1.2-1,1.2-1c1.1,0,1.1,1.1,1.1,1.1v1.4h4.4c0.2-2.7-0.4-3.3-0.4-3.3c-1.1-2.4-5.2-2.3-5.2-2.3
	c-6.3,0-5.6,4.8-5.6,4.8v8.8c0.1,4.5,6.3,4.1,6.4,4.1c2.8-0.3,3.6-1.2,3.6-1.2c0.8-0.6,1-1.4,1-1.4c0.2-0.5,0.3-1.9,0.3-1.9v-5.1
	H174.1L174.1,806.3z M84.1,798.9h-7.3L74,815.5h4.6l1.7-12.8h0.4l1.7,12.8H87L84.1,798.9z M96,803h0.3l2.3,12.5h4.5l2.3-12.5h0.3
	l0.1,12.5h4.3l-0.5-16.6h-7.2L101,808h-0.3l-1.4-9.1H92l-0.4,16.5h4.3L96,803z M124.7,806.5c0,0-1.2-0.7-1.9-1c0,0-2.3-1.1-2.7-1.6
	c0,0-0.9-0.8-0.4-1.8c0,0,0.2-0.6,1.2-0.6c0,0,1.2,0.1,1.2,1.1v1.4h4.4l0-2.1c0,0,0.3-3.4-5.1-3.5c0,0-4.3-0.3-5.5,2
	c0,0-0.5,0.5-0.5,2.3v1.3c0,0-0.1,1.5,0.7,2.5c0,0,0.4,0.6,1.5,1.3c0,0,2.2,1.2,3.5,1.8c0,0,1.3,0.8,1.1,1.9c0,0-0.1,1.2-1.4,1.2
	c0,0-1.2-0.1-1.2-1.2v-1.4H115v2c0,0-0.1,3.9,5.8,3.9c0,0,5.7,0.1,6-4v-1.7C126.7,810.4,126.9,807.8,124.7,806.5L124.7,806.5z"/>
</svg>
