<?xml version="1.0" encoding="utf-8"?>
<!-- Generator: Adobe Illustrator 18.0.0, SVG Export Plug-In . SVG Version: 6.00 Build 0)  -->
<!DOCTYPE svg PUBLIC "-//W3C//DTD SVG 1.1//EN" "http://www.w3.org/Graphics/SVG/1.1/DTD/svg11.dtd">
<svg version="1.1"
	 id="svg2" inkscape:version="0.46" sodipodi:docname="drawing.svg" inkscape:output_extension="org.inkscape.output.svg.inkscape" sodipodi:version="0.32" xmlns:dc="http://purl.org/dc/elements/1.1/" xmlns:cc="http://creativecommons.org/ns#" xmlns:rdf="http://www.w3.org/1999/02/22-rdf-syntax-ns#" xmlns:svg="http://www.w3.org/2000/svg" xmlns:sodipodi="http://sodipodi.sourceforge.net/DTD/sodipodi-0.dtd" xmlns:inkscape="http://www.inkscape.org/namespaces/inkscape"
	 xmlns="http://www.w3.org/2000/svg" xmlns:xlink="http://www.w3.org/1999/xlink" x="0px" y="0px" viewBox="0 0 235.8 235.8"
	 enable-background="new 0 0 235.8 235.8" xml:space="preserve">
<path fill="#C8135C" d="M117.9,0C52.8,0,0,52.8,0,117.9c0,65,52.8,117.9,117.9,117.9c65.1,0,117.9-52.9,117.9-117.9
	C235.8,52.8,183,0,117.9,0z M146,160.2v9.3h-32.8V66.1h9.5v94.2H146z M187.8,187.6c-18.7,18.7-43.4,29-69.8,29
	c-26.4,0-51.2-10.4-69.8-29c-18.6-18.6-28.9-43.4-28.9-69.8c0-54.5,44.3-98.6,98.7-98.6c1.2,0,3.5,0,4.7,0l0,9.2
	c-1.2,0-3.7-0.1-4.7-0.1c-23.9,0-46.4,9.3-63.3,26.2C37.8,71.5,28.4,94,28.4,117.8c0,23.9,9.3,46.4,26.2,63.3
	c16.9,16.8,39.4,26.1,63.3,26.1c47.2,0,86.2-36.8,89.2-83.4c0-0.2,0-1.2,0-1.4h-61.1v-9.2h70.4v4.5
	C216.6,144.2,206.3,169,187.8,187.6z M94.5,80.2c0,7.8-6.4,14.1-14.2,14.1c-7.8,0-14.2-6.3-14.2-14.1c0-7.8,6.4-14.2,14.2-14.2
	C88.1,66,94.5,72.4,94.5,80.2z"/>
</svg>
